<svg width="26" height="26" viewBox="0 0 26 26" fill="none" xmlns="http://www.w3.org/2000/svg">
<mask id="mask0_196_1215" style="mask-type:alpha" maskUnits="userSpaceOnUse" x="2" y="2" width="22" height="22">
<path d="M8.82009 22.326L19.6537 11.4924L14.5079 6.34667L3.67434 17.1803C3.5252 17.3296 3.41925 17.5165 3.36774 17.7212L2.16699 23.8334L8.278 22.6326C8.48318 22.5813 8.67087 22.4752 8.82009 22.326ZM23.151 7.99508C23.5881 7.55785 23.8337 6.96492 23.8337 6.34667C23.8337 5.72843 23.5881 5.13549 23.151 4.69826L21.3021 2.84934C20.8649 2.41224 20.2719 2.16669 19.6537 2.16669C19.0354 2.16669 18.4425 2.41224 18.0053 2.84934L16.1563 4.69826L21.3021 9.84401L23.151 7.99508Z" fill="#D9D9D9"/>
</mask>
<g mask="url(#mask0_196_1215)">
<rect width="26" height="26" fill="#B3B3B3"/>
</g>
</svg>
