<svg width="16" height="16" viewBox="0 0 16 16" fill="none" xmlns="http://www.w3.org/2000/svg">
<path fill-rule="evenodd" clip-rule="evenodd" d="M15.4438 14.9965L11.8396 11.4119C14.365 8.8709 14.4419 4.792 12.0142 2.15758C9.58649 -0.476852 5.5149 -0.732705 2.77649 1.57709C0.0380733 3.88688 -0.396188 7.94332 1.79122 10.7804C3.97864 13.6176 8.01211 14.2294 10.9425 12.1686L14.6169 15.843C14.8474 16.0578 15.2066 16.0514 15.4295 15.8286C15.6523 15.6058 15.6586 15.2466 15.4438 15.016V14.9965ZM1.6709 6.73038C1.6709 3.71444 4.1158 1.26953 7.13175 1.26953C10.1477 1.26953 12.5926 3.71444 12.5926 6.73038C12.5926 9.74632 10.1477 12.1912 7.13175 12.1912C4.1158 12.1912 1.6709 9.74632 1.6709 6.73038Z" fill="#616161"/>
</svg>
