<svg width="42" height="42" viewBox="0 0 42 42" fill="none" xmlns="http://www.w3.org/2000/svg">
<circle cx="21" cy="21" r="20" stroke="black" stroke-width="2"/>
<path d="M12.332 14.6912L29.6654 14.6912M25.332 30.75H16.6654C15.4687 30.75 14.4987 29.7229 14.4987 28.4559V15.8382C14.4987 15.2047 14.9837 14.6912 15.582 14.6912H26.4154C27.0137 14.6912 27.4987 15.2047 27.4987 15.8382V28.4559C27.4987 29.7229 26.5286 30.75 25.332 30.75ZM18.832 14.6912H23.1654C23.7637 14.6912 24.2487 14.1776 24.2487 13.5441V12.3971C24.2487 11.7636 23.7637 11.25 23.1654 11.25H18.832C18.2337 11.25 17.7487 11.7636 17.7487 12.3971V13.5441C17.7487 14.1776 18.2337 14.6912 18.832 14.6912Z" stroke="black" stroke-width="2" stroke-linecap="round"/>
</svg>
