<svg width="268" height="346" viewBox="0 0 268 346" fill="none" xmlns="http://www.w3.org/2000/svg">
<path d="M88.1802 41.36C87.7802 41.36 87.5535 41.0933 87.5002 40.56C88.4068 36.7467 89.8068 31.4133 91.7002 24.56C91.8868 23.9467 92.1402 23.0267 92.4602 21.8C91.6068 22.04 91.0202 22.32 90.7002 22.64C90.3802 22.96 90.2202 23.3733 90.2202 23.88C90.2202 24.2533 90.1535 24.5467 90.0202 24.76C89.9135 24.9467 89.6602 25.04 89.2602 25.04C88.7002 25.04 88.4202 24.6533 88.4202 23.88C88.4202 22.8933 88.7668 22.12 89.4602 21.56C90.1535 20.9733 91.3135 20.4667 92.9402 20.04C93.6602 17.0267 94.3935 12.04 95.1402 5.08L95.4602 2.24C95.5402 1.6 95.9268 1.28 96.6202 1.28C96.8868 1.28 97.0735 1.33333 97.1802 1.44C97.2868 1.54667 97.3268 1.72 97.3002 1.96C96.9802 5.74667 96.1802 11.6 94.9002 19.52C98.8468 18.5067 103.927 17.8533 110.14 17.56C110.753 13.0533 111.487 8.48 112.34 3.84L112.66 1.84C112.713 1.54667 112.847 1.32 113.06 1.16C113.3 0.973331 113.553 0.879998 113.82 0.879998C114.007 0.879998 114.167 0.946665 114.3 1.08C114.433 1.18666 114.5 1.34667 114.5 1.56C114.5 1.66667 114.287 3.02667 113.86 5.64C112.793 12.2267 112.167 16.1867 111.98 17.52H116.46C116.673 17.52 116.833 17.6 116.94 17.76C117.073 17.8933 117.14 18.0533 117.14 18.24C117.14 18.4533 117.047 18.68 116.86 18.92C116.673 19.1333 116.447 19.28 116.18 19.36L111.7 19.32C111.54 20.6 111.127 22.9467 110.46 26.36C109.9 29.3467 109.473 31.8 109.18 33.72C108.887 35.6133 108.7 37.48 108.62 39.32C108.593 39.64 108.447 39.9067 108.18 40.12C107.94 40.3333 107.7 40.44 107.46 40.44C107.06 40.44 106.833 40.16 106.78 39.6C106.887 36.5333 107.62 31.6 108.98 24.8L109.34 22.92L109.9 19.4C103.713 19.64 98.5535 20.32 94.4202 21.44C93.7535 24.16 92.8735 27.44 91.7802 31.28C90.6602 35.28 89.8335 38.3733 89.3002 40.56C89.0068 41.0933 88.6335 41.36 88.1802 41.36ZM131.337 40.08C130.723 40.08 130.15 39.76 129.617 39.12C129.11 38.4533 128.857 37.7467 128.857 37C128.857 35.3467 129.297 32.5467 130.177 28.6C129.51 30.04 128.643 31.52 127.577 33.04C126.537 34.5333 125.51 35.8533 124.497 37C123.483 38.1467 122.737 38.8933 122.257 39.24C121.59 39.7467 120.857 40 120.057 40C118.537 40 117.777 39.04 117.777 37.12C117.777 35.2533 118.483 32.9333 119.897 30.16C121.31 27.36 122.99 24.9333 124.937 22.88C126.883 20.8533 128.457 19.84 129.657 19.84C130.883 19.84 131.577 20.3733 131.737 21.44C131.817 21.76 131.857 22.1067 131.857 22.48C131.99 22.4 132.137 22.36 132.297 22.36C132.91 22.36 133.217 22.6533 133.217 23.24V23.4L132.737 25.16C132.363 26.4933 131.977 28.4667 131.577 31.08C131.177 33.6933 130.977 35.8667 130.977 37.6L131.377 37.84C132.017 38.24 132.337 38.64 132.337 39.04C132.337 39.3067 132.243 39.5467 132.057 39.76C131.87 39.9733 131.63 40.08 131.337 40.08ZM120.377 37.92C120.67 37.92 120.91 37.8267 121.097 37.64C123.817 35.32 126.23 32.1067 128.337 28C129.243 26.2933 129.803 25.1733 130.017 24.64C130.257 24.1067 130.377 23.5867 130.377 23.08C130.377 22.8133 130.31 22.5733 130.177 22.36C130.043 22.1467 129.87 22.04 129.657 22.04C129.39 22.04 129.043 22.16 128.617 22.4C127.55 22.96 126.283 24.1467 124.817 25.96C123.377 27.7733 122.19 29.6933 121.257 31.72C120.27 33.7733 119.777 35.6 119.777 37.2C119.777 37.68 119.977 37.92 120.377 37.92ZM134.065 56.4C133.665 56.4 133.439 56.1333 133.385 55.6C134.185 52.56 134.879 49.52 135.465 46.48L136.665 40.2L137.865 33.92L138.185 32.24C139.252 26.6933 139.972 22.9867 140.345 21.12V20.24C140.345 19.9733 140.465 19.72 140.705 19.48C140.945 19.24 141.225 19.12 141.545 19.12C141.839 19.12 142.065 19.24 142.225 19.48C142.385 19.6933 142.465 19.9333 142.465 20.2C142.465 20.5733 142.399 20.96 142.265 21.36L142.105 21.88C142.052 22.0933 142.025 22.24 142.025 22.32L141.465 25.2C143.385 21.5467 145.439 19.72 147.625 19.72C148.772 19.72 149.599 20.0667 150.105 20.76C150.639 21.4267 150.905 22.44 150.905 23.8C150.905 26.36 150.545 28.9067 149.825 31.44C149.105 33.9733 148.065 36.1067 146.705 37.84C145.319 39.6267 143.665 40.52 141.745 40.52C140.999 40.52 140.399 40.36 139.945 40.04C139.519 39.7467 139.172 39.2267 138.905 38.48L138.425 40.84C137.785 43.7733 137.319 45.9867 137.025 47.48C136.385 50.7333 135.772 53.44 135.185 55.6C134.945 56.1333 134.572 56.4 134.065 56.4ZM142.025 38.64C143.412 38.64 144.705 37.76 145.905 36C147.399 33.7333 148.385 30.76 148.865 27.08C148.999 25.9333 149.065 24.9467 149.065 24.12C149.065 22.3867 148.639 21.52 147.785 21.52C146.932 21.52 145.959 22.1333 144.865 23.36C143.372 25.04 142.145 27.0667 141.185 29.44C140.225 31.7867 139.745 33.8267 139.745 35.56C139.745 37.6133 140.505 38.64 142.025 38.64ZM150.784 56.4C150.384 56.4 150.158 56.1333 150.104 55.6C150.904 52.56 151.598 49.52 152.184 46.48L153.384 40.2L154.584 33.92L154.904 32.24C155.971 26.6933 156.691 22.9867 157.064 21.12V20.24C157.064 19.9733 157.184 19.72 157.424 19.48C157.664 19.24 157.944 19.12 158.264 19.12C158.558 19.12 158.784 19.24 158.944 19.48C159.104 19.6933 159.184 19.9333 159.184 20.2C159.184 20.5733 159.118 20.96 158.984 21.36L158.824 21.88C158.771 22.0933 158.744 22.24 158.744 22.32L158.184 25.2C160.104 21.5467 162.158 19.72 164.344 19.72C165.491 19.72 166.318 20.0667 166.824 20.76C167.358 21.4267 167.624 22.44 167.624 23.8C167.624 26.36 167.264 28.9067 166.544 31.44C165.824 33.9733 164.784 36.1067 163.424 37.84C162.038 39.6267 160.384 40.52 158.464 40.52C157.718 40.52 157.118 40.36 156.664 40.04C156.238 39.7467 155.891 39.2267 155.624 38.48L155.144 40.84C154.504 43.7733 154.038 45.9867 153.744 47.48C153.104 50.7333 152.491 53.44 151.904 55.6C151.664 56.1333 151.291 56.4 150.784 56.4ZM158.744 38.64C160.131 38.64 161.424 37.76 162.624 36C164.118 33.7333 165.104 30.76 165.584 27.08C165.718 25.9333 165.784 24.9467 165.784 24.12C165.784 22.3867 165.358 21.52 164.504 21.52C163.651 21.52 162.678 22.1333 161.584 23.36C160.091 25.04 158.864 27.0667 157.904 29.44C156.944 31.7867 156.464 33.8267 156.464 35.56C156.464 37.6133 157.224 38.64 158.744 38.64ZM171.583 56.68C170.73 56.68 169.97 56.4533 169.303 56C168.663 55.5467 168.17 54.9733 167.823 54.28C167.476 53.6133 167.303 52.9467 167.303 52.28C167.303 50.6533 167.743 49.2 168.623 47.92C169.263 46.9867 170.33 45.9867 171.823 44.92C173.183 43.9067 173.983 43.3467 174.223 43.24L177.703 40.68C177.783 40.3067 178.276 38.6533 179.183 35.72L179.703 34.08C179.89 33.4133 180.076 32.8 180.263 32.24C180.45 31.68 180.583 31.2133 180.663 30.84C179.516 34.1733 178.143 36.72 176.543 38.48C175.476 39.7067 174.436 40.32 173.423 40.32C172.41 40.32 171.583 39.92 170.943 39.12C170.33 38.2933 170.023 37.1733 170.023 35.76C170.023 33.52 170.663 29.9867 171.943 25.16C172.583 22.76 172.903 21.4667 172.903 21.28C172.876 21.1733 172.863 21.0533 172.863 20.92C172.863 20.7333 172.903 20.5867 172.983 20.48C173.356 19.9733 173.796 19.72 174.303 19.72C174.81 19.72 175.063 19.9867 175.063 20.52C175.063 21.0533 174.57 23.2933 173.583 27.24C172.596 31.1867 172.103 33.8667 172.103 35.28C172.103 36.6667 172.276 37.5333 172.623 37.88C172.943 38.2267 173.343 38.4 173.823 38.4C174.836 38.4 175.916 37.5467 177.063 35.84C177.97 34.5067 178.77 32.72 179.463 30.48C180.183 28.2133 180.85 25.8267 181.463 23.32L181.663 22.52C181.956 21.32 182.21 20.5733 182.423 20.28C182.636 19.96 182.956 19.8 183.383 19.8C183.81 19.8 184.023 19.96 184.023 20.28C184.023 20.6533 183.45 23.3733 182.303 28.44C181.183 33.16 180.383 36.68 179.903 39C180.436 38.5467 180.903 38.12 181.303 37.72C181.836 37.1867 182.223 36.8133 182.463 36.6C182.73 36.3867 182.97 36.28 183.183 36.28C183.69 36.28 183.943 36.5067 183.943 36.96C183.943 37.2 183.836 37.4667 183.623 37.76C182.183 39.04 180.796 40.1867 179.463 41.2C178.823 44.72 178.223 47.5067 177.663 49.56C177.103 51.64 176.33 53.3467 175.343 54.68C174.383 56.0133 173.13 56.68 171.583 56.68ZM171.623 54.76C173.25 54.76 174.636 52.88 175.783 49.12L176.703 45.6L177.223 43C176.183 43.8 175.17 44.5333 174.183 45.2C173.196 45.8667 172.383 46.4667 171.743 47C171.13 47.5333 170.57 48.2133 170.063 49.04C169.583 49.8667 169.343 50.8133 169.343 51.88C169.343 52.9733 169.703 53.8133 170.423 54.4C170.69 54.64 171.09 54.76 171.623 54.76ZM75.0814 66.16C76.5481 66.24 77.9347 66.7333 79.2414 67.64C80.5481 68.52 81.6014 69.6267 82.4014 70.96C83.2014 72.2667 83.6014 73.5733 83.6014 74.88C83.6014 78.6133 82.1747 81.4533 79.3214 83.4C76.4681 85.3467 72.4947 86.32 67.4014 86.32L66.5614 86.28C66.4814 86.6533 66.4414 86.9733 66.4414 87.24C66.3614 87.56 66.2147 87.8267 66.0014 88.04C65.7881 88.28 65.5614 88.4 65.3214 88.4C64.8681 88.4 64.6147 88.1333 64.5614 87.6C64.6147 87.0667 64.7081 86.5333 64.8414 86L63.6814 85.76C62.6414 85.5733 61.9614 85.36 61.6414 85.12C61.3214 84.8533 61.1614 84.5333 61.1614 84.16C61.1614 84 61.2414 83.84 61.4014 83.68C61.5614 83.4933 61.7081 83.4 61.8414 83.4C61.9214 83.4 62.2014 83.48 62.6814 83.64C63.1881 83.8 63.6281 83.9333 64.0014 84.04C64.3481 84.12 64.7614 84.16 65.2414 84.16L69.1214 67.28L67.9214 67.24C67.5214 67.24 67.3214 67.0133 67.3214 66.56C67.3214 65.92 68.0414 65.6 69.4814 65.6C69.9347 63.7333 70.3881 61.4133 70.8414 58.64C71.1347 56.7467 71.4147 55.1333 71.6814 53.8C71.9747 52.4667 72.3481 51.1067 72.8014 49.72C72.5614 49.8267 72.1614 50.1067 71.6014 50.56C71.4147 50.7467 71.2147 50.92 71.0014 51.08C70.7881 51.2133 70.6014 51.28 70.4414 51.28C70.2814 51.28 70.1214 51.2133 69.9614 51.08C69.8281 50.9467 69.7614 50.7467 69.7614 50.48C69.7614 49.8933 70.1347 49.36 70.8814 48.88C71.6281 48.4 72.5347 48.0533 73.6014 47.84C73.7614 47.5733 73.9614 47.44 74.2014 47.44C74.4147 47.44 74.6281 47.5467 74.8414 47.76C77.3214 47.84 79.3081 48.6933 80.8014 50.32C82.2947 51.9467 83.0414 54.1067 83.0414 56.8C83.0414 58.24 82.6547 59.6533 81.8814 61.04C81.1347 62.4 80.1481 63.5467 78.9214 64.48C77.6947 65.4133 76.4147 65.9733 75.0814 66.16ZM74.4414 49.48C73.9881 51 73.6281 52.4533 73.3614 53.84C73.0947 55.2267 72.8014 56.9067 72.4814 58.88C72.4014 59.28 72.2414 60.1733 72.0014 61.56C71.7881 62.92 71.5347 64.2533 71.2414 65.56C73.0281 65.56 74.6681 65.1733 76.1614 64.4C77.6814 63.6 78.8814 62.5333 79.7614 61.2C80.6414 59.8667 81.0814 58.4133 81.0814 56.84C81.0814 54.4933 80.4814 52.6933 79.2814 51.44C78.0814 50.1867 76.4681 49.5333 74.4414 49.48ZM68.4814 84.52C71.2814 84.52 73.6681 84.1467 75.6414 83.4C77.6414 82.6267 79.1614 81.5333 80.2014 80.12C81.2414 78.7067 81.7614 77.04 81.7614 75.12C81.7614 73.8133 81.3347 72.5733 80.4814 71.4C79.6547 70.2 78.5614 69.24 77.2014 68.52C75.8414 67.8 74.4281 67.44 72.9614 67.44C72.1081 67.44 71.4014 67.4133 70.8414 67.36C70.4147 69.2267 69.7614 72.0933 68.8814 75.96C68.0014 79.8 67.3481 82.6267 66.9214 84.44C67.4014 84.4933 67.9214 84.52 68.4814 84.52ZM87.5883 86.4C86.6816 86.4 86.2283 85.6667 86.2283 84.2C86.2283 83.8267 86.2949 83.4933 86.4283 83.2C86.5616 82.7467 86.6816 82.2267 86.7883 81.64L87.3883 78.96L88.1883 75.44C88.4549 74.1333 88.7749 72.6667 89.1483 71.04C89.2016 70.88 89.2549 70.6133 89.3083 70.24C89.5749 69.0933 89.7083 68.4267 89.7083 68.24V67.84C89.7083 67.6267 89.6149 67.1867 89.4283 66.52C89.4283 66.2 89.5349 65.9067 89.7483 65.64C89.9883 65.3733 90.2683 65.24 90.5883 65.24C90.8816 65.24 91.1349 65.44 91.3483 65.84C91.5616 66.24 91.6683 66.68 91.6683 67.16C91.6683 67.6933 91.0549 70.5733 89.8283 75.8C88.6016 81.0267 87.9883 83.8 87.9883 84.12C87.9883 84.4133 88.1216 84.56 88.3883 84.56C88.5216 84.56 88.7616 84.3867 89.1083 84.04C89.4283 83.72 89.6949 83.56 89.9083 83.56C90.3349 83.56 90.5483 83.8267 90.5483 84.36C90.5483 84.68 90.3616 85 89.9883 85.32C89.6149 85.64 89.1883 85.8933 88.7083 86.08C88.2283 86.2933 87.8549 86.4 87.5883 86.4ZM91.6283 62.24C91.2016 62.24 90.8816 62.1867 90.6683 62.08H90.5083C89.7349 62.08 89.3483 61.6267 89.3483 60.72C89.3483 60.2667 89.5349 59.8533 89.9083 59.48C90.3083 59.1067 90.7349 58.92 91.1883 58.92C91.6416 58.92 92.0683 59.08 92.4683 59.4C92.9216 59.8533 93.1483 60.2933 93.1483 60.72C93.1483 61.12 92.9883 61.48 92.6683 61.8C92.3749 62.0933 92.0283 62.24 91.6283 62.24ZM95.703 86.64C95.3296 86.64 95.143 86.4 95.143 85.92L96.063 81.16L97.743 72.72C98.4896 68.9867 98.863 67.12 98.863 67.12C98.9696 66.5333 99.1163 66.1067 99.303 65.84C99.4896 65.5733 99.7296 65.44 100.023 65.44C100.29 65.44 100.49 65.5067 100.623 65.64C100.783 65.7733 100.863 66.0133 100.863 66.36C100.863 66.9733 100.676 67.9067 100.303 69.16C100.116 69.7733 99.983 70.2933 99.903 70.72C99.7963 71.0933 99.6763 71.52 99.543 72C99.4096 72.4533 99.263 72.9867 99.103 73.6C99.823 71.9733 100.503 70.68 101.143 69.72C101.783 68.7333 102.583 67.8 103.543 66.92C104.45 66.1467 105.356 65.76 106.263 65.76C106.93 65.76 107.49 65.9067 107.943 66.2C108.396 66.4667 108.623 66.7867 108.623 67.16C108.623 67.4533 108.516 67.6933 108.303 67.88C108.09 68.04 107.823 68.12 107.503 68.12C107.263 68.12 107.036 68.0667 106.823 67.96C106.663 67.8267 106.45 67.76 106.183 67.76C105.836 67.76 105.33 68 104.663 68.48C103.41 69.3867 102.343 70.5867 101.463 72.08C100.61 73.5467 99.9296 75.04 99.423 76.56C98.943 78.0533 98.423 79.8667 97.863 82L97.503 83.48C97.103 85.5867 96.503 86.64 95.703 86.64ZM112.922 86.16C111.988 86.16 111.282 85.92 110.802 85.44C110.348 84.96 110.122 84.0933 110.122 82.84C110.122 82.1467 110.202 81.3467 110.362 80.44L110.722 78.16L111.162 76.28L111.402 75.2L111.922 73C111.975 72.6533 112.095 72.0933 112.282 71.32L112.482 70.52L112.842 68.8L113.082 67.6C112.042 67.6 111.082 67.6667 110.202 67.8C109.668 67.72 109.402 67.4933 109.402 67.12C109.402 66.8533 109.508 66.6 109.722 66.36C109.935 66.12 110.188 65.9867 110.482 65.96L113.362 66.04C113.362 66.04 113.428 65.7067 113.562 65.04C113.615 64.5067 113.722 63.8933 113.882 63.2C114.042 62.5067 114.242 61.8933 114.482 61.36C114.722 60.7733 115.068 60.48 115.522 60.48C115.948 60.48 116.162 60.72 116.162 61.2V61.44C116.055 61.9733 115.962 62.36 115.882 62.6L115.202 66H118.082C119.095 66 119.722 66.08 119.962 66.24C120.175 66.4 120.282 66.6 120.282 66.84C120.282 67.2667 120.082 67.5467 119.682 67.68C119.308 67.7867 118.655 67.84 117.722 67.84C116.868 67.84 115.922 67.8 114.882 67.72C114.722 68.6 114.175 71.04 113.242 75.04C112.388 78.6667 111.962 80.96 111.962 81.92C111.962 82.96 112.082 83.64 112.322 83.96C112.455 84.1733 112.735 84.28 113.162 84.28C113.535 84.28 113.855 84.1867 114.122 84C114.415 83.7867 114.708 83.5067 115.002 83.16C115.295 82.7867 115.548 82.5067 115.762 82.32C115.975 82.1333 116.202 82.04 116.442 82.04C116.975 82.04 117.242 82.3067 117.242 82.84C117.242 83.1067 116.975 83.5467 116.442 84.16C115.908 84.7733 115.402 85.2667 114.922 85.64C114.495 85.9867 113.828 86.16 112.922 86.16ZM122.698 86.32C122.245 86.32 122.018 86.0933 122.018 85.64C122.018 85.2667 123.325 79.0667 125.938 67.04C126.685 63.44 127.418 59.8 128.138 56.12C128.885 52.4133 129.431 49.7067 129.778 48C129.911 47.6 130.138 47.4 130.458 47.4C131.151 47.4 131.578 47.7333 131.738 48.4C131.365 50.32 130.765 53.28 129.938 57.28C129.111 61.2533 128.405 64.6267 127.818 67.4L126.298 74.4C129.018 68.8 131.591 66 134.018 66C134.951 66 135.671 66.3733 136.178 67.12C136.685 67.84 136.938 68.7067 136.938 69.72C136.938 70.7067 136.765 72.0133 136.418 73.64L135.778 77C135.031 80.8667 134.658 83.0667 134.658 83.6L134.738 85.16C134.738 85.5067 134.618 85.7867 134.378 86C134.165 86.1867 133.871 86.28 133.498 86.28C133.151 86.28 132.885 86.1733 132.698 85.96C132.511 85.72 132.418 85.4 132.418 85C132.418 84.76 132.431 84.5733 132.458 84.44L134.778 71.44C134.858 71.04 134.898 70.56 134.898 70C134.898 68.6667 134.525 68 133.778 68C132.925 68 131.911 68.7467 130.738 70.24C129.565 71.7067 128.458 73.3733 127.418 75.24C126.405 77.1067 125.765 78.44 125.498 79.24C125.178 80.2 124.871 81.28 124.578 82.48C124.285 83.6533 124.138 84.4 124.138 84.72C124.165 85.3867 124.098 85.8133 123.938 86C123.778 86.2133 123.365 86.32 122.698 86.32ZM150.529 86.72C150.209 86.72 149.916 86.3467 149.649 85.6C149.409 84.8267 149.289 84.12 149.289 83.48C149.289 82.9467 149.369 82.32 149.529 81.6C148.969 83.2533 148.262 84.4667 147.409 85.24C146.556 85.9867 145.462 86.36 144.129 86.36C142.876 86.36 141.929 85.8533 141.289 84.84C140.649 83.8 140.329 82.64 140.329 81.36C140.329 77.3867 141.076 74.0133 142.569 71.24C143.289 69.9867 143.916 69.0533 144.449 68.44C144.982 67.8 145.676 67.2 146.529 66.64C147.356 66.08 148.396 65.8 149.649 65.8C150.876 65.8 151.769 66.4 152.329 67.6L153.009 64.6C153.889 60.7867 154.622 57.44 155.209 54.56L155.929 50.96L156.369 48.88C156.369 48.56 156.476 48.28 156.689 48.04C156.929 47.7733 157.182 47.64 157.449 47.64C158.009 47.64 158.289 47.9467 158.289 48.56V48.72C158.289 49.44 157.836 51.8667 156.929 56C155.996 60.2933 155.396 63.2667 155.129 64.92C154.836 66.6267 154.316 69.0267 153.569 72.12L153.009 74.32C152.396 76.6667 151.942 78.52 151.649 79.88C151.382 81.24 151.262 82.4 151.289 83.36C151.289 84.08 151.409 84.8267 151.649 85.6C151.622 85.8933 151.476 86.1467 151.209 86.36C150.969 86.6 150.742 86.72 150.529 86.72ZM144.489 84.4C145.102 84.4 145.969 83.6267 147.089 82.08C148.236 80.5067 149.236 78.6267 150.089 76.44C150.942 74.2533 151.369 72.24 151.369 70.4C151.369 69.68 151.156 69.0133 150.729 68.4C150.329 67.7867 149.796 67.48 149.129 67.48C147.902 67.48 146.756 68.2533 145.689 69.8C144.622 71.32 143.756 73.2267 143.089 75.52C142.449 77.68 142.129 79.4933 142.129 80.96C142.129 81.9467 142.316 82.7733 142.689 83.44C143.089 84.08 143.689 84.4 144.489 84.4ZM170.907 86.08C170.294 86.08 169.72 85.76 169.187 85.12C168.68 84.4533 168.427 83.7467 168.427 83C168.427 81.3467 168.867 78.5467 169.747 74.6C169.08 76.04 168.214 77.52 167.147 79.04C166.107 80.5333 165.08 81.8533 164.067 83C163.054 84.1467 162.307 84.8933 161.827 85.24C161.16 85.7467 160.427 86 159.627 86C158.107 86 157.347 85.04 157.347 83.12C157.347 81.2533 158.054 78.9333 159.467 76.16C160.88 73.36 162.56 70.9333 164.507 68.88C166.454 66.8533 168.027 65.84 169.227 65.84C170.454 65.84 171.147 66.3733 171.307 67.44C171.387 67.76 171.427 68.1067 171.427 68.48C171.56 68.4 171.707 68.36 171.867 68.36C172.48 68.36 172.787 68.6533 172.787 69.24V69.4L172.307 71.16C171.934 72.4933 171.547 74.4667 171.147 77.08C170.747 79.6933 170.547 81.8667 170.547 83.6L170.947 83.84C171.587 84.24 171.907 84.64 171.907 85.04C171.907 85.3067 171.814 85.5467 171.627 85.76C171.44 85.9733 171.2 86.08 170.907 86.08ZM159.947 83.92C160.24 83.92 160.48 83.8267 160.667 83.64C163.387 81.32 165.8 78.1067 167.907 74C168.814 72.2933 169.374 71.1733 169.587 70.64C169.827 70.1067 169.947 69.5867 169.947 69.08C169.947 68.8133 169.88 68.5733 169.747 68.36C169.614 68.1467 169.44 68.04 169.227 68.04C168.96 68.04 168.614 68.16 168.187 68.4C167.12 68.96 165.854 70.1467 164.387 71.96C162.947 73.7733 161.76 75.6933 160.827 77.72C159.84 79.7733 159.347 81.6 159.347 83.2C159.347 83.68 159.547 83.92 159.947 83.92ZM177.716 102.68C176.862 102.68 176.102 102.453 175.436 102C174.796 101.547 174.302 100.973 173.956 100.28C173.609 99.6133 173.436 98.9467 173.436 98.28C173.436 96.6533 173.876 95.2 174.756 93.92C175.396 92.9867 176.462 91.9867 177.956 90.92C179.316 89.9067 180.116 89.3467 180.356 89.24L183.836 86.68C183.916 86.3067 184.409 84.6533 185.316 81.72L185.836 80.08C186.022 79.4133 186.209 78.8 186.396 78.24C186.582 77.68 186.716 77.2133 186.796 76.84C185.649 80.1733 184.276 82.72 182.676 84.48C181.609 85.7067 180.569 86.32 179.556 86.32C178.542 86.32 177.716 85.92 177.076 85.12C176.462 84.2933 176.156 83.1733 176.156 81.76C176.156 79.52 176.796 75.9867 178.076 71.16C178.716 68.76 179.036 67.4667 179.036 67.28C179.009 67.1733 178.996 67.0533 178.996 66.92C178.996 66.7333 179.036 66.5867 179.116 66.48C179.489 65.9733 179.929 65.72 180.436 65.72C180.942 65.72 181.196 65.9867 181.196 66.52C181.196 67.0533 180.702 69.2933 179.716 73.24C178.729 77.1867 178.236 79.8667 178.236 81.28C178.236 82.6667 178.409 83.5333 178.756 83.88C179.076 84.2267 179.476 84.4 179.956 84.4C180.969 84.4 182.049 83.5467 183.196 81.84C184.102 80.5067 184.902 78.72 185.596 76.48C186.316 74.2133 186.982 71.8267 187.596 69.32L187.796 68.52C188.089 67.32 188.342 66.5733 188.556 66.28C188.769 65.96 189.089 65.8 189.516 65.8C189.942 65.8 190.156 65.96 190.156 66.28C190.156 66.6533 189.582 69.3733 188.436 74.44C187.316 79.16 186.516 82.68 186.036 85C186.569 84.5467 187.036 84.12 187.436 83.72C187.969 83.1867 188.356 82.8133 188.596 82.6C188.862 82.3867 189.102 82.28 189.316 82.28C189.822 82.28 190.076 82.5067 190.076 82.96C190.076 83.2 189.969 83.4667 189.756 83.76C188.316 85.04 186.929 86.1867 185.596 87.2C184.956 90.72 184.356 93.5067 183.796 95.56C183.236 97.64 182.462 99.3467 181.476 100.68C180.516 102.013 179.262 102.68 177.716 102.68ZM177.756 100.76C179.382 100.76 180.769 98.88 181.916 95.12L182.836 91.6L183.356 89C182.316 89.8 181.302 90.5333 180.316 91.2C179.329 91.8667 178.516 92.4667 177.876 93C177.262 93.5333 176.702 94.2133 176.196 95.04C175.716 95.8667 175.476 96.8133 175.476 97.88C175.476 98.9733 175.836 99.8133 176.556 100.4C176.822 100.64 177.222 100.76 177.756 100.76ZM195.713 79.6C195.313 79.6 195.086 79.3333 195.033 78.8C197.486 68.2133 199.179 58.9067 200.113 50.88C200.273 49.6267 200.473 48.3067 200.713 46.92C201.006 45.5867 201.166 44.2667 201.193 42.96C201.273 42.6933 201.419 42.4667 201.633 42.28C201.873 42.0933 202.113 42 202.353 42C202.673 42 202.899 42.2267 203.033 42.68C202.979 43.8267 202.806 45.24 202.513 46.92C202.166 49.08 201.859 51.32 201.593 53.64C201.299 56.36 200.699 60.08 199.793 64.8C198.913 69.4933 197.926 74.16 196.833 78.8C196.539 79.3333 196.166 79.6 195.713 79.6ZM195.073 87.96C194.859 87.96 194.686 87.8933 194.553 87.76C194.419 87.6267 194.353 87.4667 194.353 87.28C194.353 87.0933 194.366 86.9733 194.393 86.92C193.859 86.7067 193.593 86.32 193.593 85.76C193.593 85.2 193.819 84.72 194.273 84.32C194.753 83.92 195.233 83.72 195.713 83.72C196.139 83.72 196.473 83.8667 196.713 84.16C196.953 84.4267 197.073 84.8 197.073 85.28C197.073 85.84 196.873 86.4267 196.473 87.04C196.099 87.6533 195.633 87.96 195.073 87.96Z" fill="#FF9600"/>
<path d="M64.6297 316.5C91.2997 286.56 152.84 229.96 217.59 257.4C220.95 258.82 223.17 262.54 223.17 266.66V323.57C223.17 329.02 219.92 335.43 215.18 335.43L70.6097 333.44C62.9097 333.44 59.1097 322.68 64.6197 316.49L64.6297 316.5Z" fill="#7C5135"/>
<path d="M144.447 246.82C179.6 246.82 208.097 219.997 208.097 186.91C208.097 153.823 179.6 127 144.447 127C109.294 127 80.7969 153.823 80.7969 186.91C80.7969 219.997 109.294 246.82 144.447 246.82Z" fill="#FFB325"/>
<path d="M91.3594 197.23C91.3594 197.23 94.5294 203.88 92.3894 213.86" stroke="#FF861C" stroke-width="1.51" stroke-miterlimit="10"/>
<path d="M90.2386 180.63C89.9086 181.09 88.3286 183.54 88.2186 183.73C87.0086 185.82 85.9386 188.08 85.4986 190.47C85.1586 192.3 85.2286 194.3 86.3886 195.84C89.2086 199.6 95.7786 198.06 96.5886 193.39C97.4086 188.66 93.1286 183.79 90.2386 180.62V180.63Z" fill="#FF9600"/>
<path d="M90.5903 188.43C90.4103 188.68 89.5403 190.03 89.4803 190.14C88.8203 191.29 88.2303 192.53 87.9903 193.85C87.8003 194.85 87.8403 195.96 88.4803 196.81C90.0303 198.88 93.6403 198.03 94.0903 195.46C94.5403 192.86 92.1903 190.18 90.6003 188.44L90.5903 188.43Z" fill="#FFB325"/>
<path d="M97.9509 230.06V234.88H87.2109V213.98C87.2109 213.53 87.5809 213.16 88.0309 213.16H97.1209C97.5709 213.16 97.9409 213.53 97.9409 213.98V230.06" fill="#FF9600"/>
<path d="M132.407 196.13C132.407 196.13 126.757 206.09 113.938 205.23" stroke="#090504" stroke-width="1.68" stroke-miterlimit="10" stroke-linecap="round"/>
<path d="M49.7295 285.08C49.5895 284.72 49.5195 284.32 49.5195 283.91V238.16C49.5195 236.35 50.9895 234.88 52.7995 234.88H138.75C140.56 234.88 142.03 236.35 142.03 238.16V283.91C142.03 285.72 140.56 287.19 138.75 287.19H60.6095" fill="#FFB325"/>
<path d="M142.029 242.21C140.259 242.21 138.469 242.83 137.049 244.07L133.329 247.32C130.499 249.8 126.269 249.8 123.439 247.32L119.839 244.18C117.009 241.7 112.779 241.7 109.949 244.18L106.819 246.92C103.989 249.4 99.7591 249.4 96.9291 246.92L93.8491 244.23C91.0191 241.75 86.7891 241.75 83.9591 244.23L80.6291 247.14C77.7991 249.62 73.5691 249.62 70.7391 247.14L67.5891 244.39C64.7591 241.91 60.5291 241.91 57.6991 244.39L54.5791 247.12C53.1391 248.38 51.3291 249 49.5391 248.98V238.03C49.5391 236.3 50.9391 234.9 52.6691 234.9H139.559C140.939 234.9 142.059 236.03 142.059 237.41V242.23L142.029 242.21Z" fill="#FF9600"/>
<path d="M63.1543 286.608C63.4838 284.284 59.225 281.758 53.642 280.967C48.059 280.175 43.266 281.417 42.9365 283.741C42.607 286.065 46.8657 288.591 52.4487 289.383C58.0317 290.174 62.8247 288.932 63.1543 286.608Z" fill="#FFB325"/>
<path d="M145.753 295.487C147.127 288.35 137.158 280.43 123.486 277.797C109.814 275.164 97.6168 278.815 96.2424 285.952C94.868 293.089 104.837 301.009 118.509 303.642C132.181 306.275 144.378 302.624 145.753 295.487Z" fill="#FFB325"/>
<path d="M91.0805 302.93C107.428 302.93 120.68 297.23 120.68 290.2C120.68 283.169 107.428 277.47 91.0805 277.47C74.7328 277.47 61.4805 283.169 61.4805 290.2C61.4805 297.23 74.7328 302.93 91.0805 302.93Z" fill="#FFB325"/>
<path d="M133.47 295.25C133.47 302.28 120.22 307.98 103.87 307.98C87.5195 307.98 74.2695 302.28 74.2695 295.25C74.2695 288.22 87.5195 282.52 103.87 282.52C120.22 282.52 133.47 288.22 133.47 295.25Z" fill="#FFB325"/>
<path d="M143.032 306.328C144.406 299.191 132.784 290.952 117.073 287.927C101.362 284.901 87.5113 288.234 86.1369 295.371C84.7626 302.508 96.3847 310.747 112.096 313.772C127.807 316.798 141.657 313.464 143.032 306.328Z" fill="#FFB325"/>
<path d="M69.3182 287.133C69.6477 284.809 66.67 282.465 62.6673 281.898C58.6646 281.33 55.1527 282.754 54.8232 285.078C54.4937 287.402 57.4714 289.746 61.4741 290.314C65.4768 290.881 68.9887 289.457 69.3182 287.133Z" fill="#FFB325"/>
<path d="M136.52 313.836C152.99 313.005 166.047 306.5 165.684 299.307C165.321 292.115 151.675 286.958 135.205 287.789C118.735 288.621 105.677 295.126 106.04 302.318C106.403 309.511 120.05 314.668 136.52 313.836Z" fill="#FFB325"/>
<path d="M117.3 283.05C112.61 283.56 107.92 284.42 103.23 284.93C100.46 285.23 97.5801 285.57 95.2001 287.03C94.3301 287.56 93.5302 288.26 93.0402 289.16C92.5502 290.06 92.4201 291.18 92.8501 292.11C93.5201 293.55 95.2702 294.1 96.8302 294.4C99.8702 294.98 102.96 295.21 106.05 295.43C111.45 295.82 116.86 296.21 122.26 296.6" stroke="#FF861C" stroke-width="1.8" stroke-miterlimit="10" stroke-linecap="round"/>
<path d="M181.18 289.82H155.91C150.2 289.82 145.57 294.45 145.57 300.16V300.17C145.57 305.881 150.2 310.51 155.91 310.51H181.18C186.891 310.51 191.52 305.881 191.52 300.17V300.16C191.52 294.45 186.891 289.82 181.18 289.82Z" fill="#FFB325"/>
<path d="M223.388 258.278C225.114 243.361 216.938 230.161 205.126 228.794C193.314 227.427 182.339 238.412 180.613 253.329C178.887 268.246 187.064 281.447 198.876 282.813C210.687 284.18 221.662 273.195 223.388 258.278Z" fill="#FFB325"/>
<path d="M169.926 313.322C190.887 310.484 207.044 302.016 206.015 294.409C204.985 286.802 187.157 282.935 166.196 285.773C145.235 288.611 129.077 297.078 130.107 304.685C131.137 312.293 148.964 316.159 169.926 313.322Z" fill="#FFB325"/>
<path d="M214.677 277.815C216.186 260.905 208.125 246.368 196.672 245.346C185.219 244.323 174.711 257.203 173.201 274.113C171.692 291.023 179.753 305.56 191.206 306.582C202.659 307.604 213.167 294.725 214.677 277.815Z" fill="#FFB325"/>
<path d="M176.01 294.08C184.576 294.08 191.52 292.087 191.52 289.63C191.52 287.172 184.576 285.18 176.01 285.18C167.444 285.18 160.5 287.172 160.5 289.63C160.5 292.087 167.444 294.08 176.01 294.08Z" fill="#FFB325"/>
<path d="M179.01 288.342C187.461 281.855 193.099 275.015 191.602 273.066C190.106 271.116 182.042 274.795 173.591 281.282C165.14 287.769 159.502 294.608 160.999 296.557C162.495 298.507 170.559 294.829 179.01 288.342Z" fill="#FFB325"/>
<path d="M182.509 283.352C189.784 273.843 192.482 263.685 188.535 260.665C184.587 257.645 175.489 262.905 168.213 272.415C160.937 281.924 158.239 292.081 162.187 295.102C166.135 298.122 175.233 292.862 182.509 283.352Z" fill="#FFB325"/>
<path d="M218.575 282.308C222.376 272.356 222.981 263.342 219.926 262.176C216.872 261.009 211.315 268.132 207.514 278.085C203.714 288.037 203.109 297.051 206.163 298.217C209.218 299.384 214.775 292.261 218.575 282.308Z" fill="#FFB325"/>
<path d="M173.057 283.82H139.367V299.64H173.057V283.82Z" fill="#FFB325"/>
<path d="M150.852 284.178L134.129 280.958L130.695 298.79L147.418 302.011L150.852 284.178Z" fill="#FFB325"/>
<path d="M172.036 272.931L144.348 284.965L148.206 293.843L175.894 281.809L172.036 272.931Z" fill="#FFB325"/>
<path d="M161.182 311H118.672V315.58H161.182V311Z" fill="#FFB325"/>
<path d="M87.3592 292.68C85.7292 292.58 69.1792 290.91 67.5492 290.77L66.7792 290.72C63.6792 290.5 60.5892 290.15 57.5192 289.66C55.8792 289.4 54.2492 289.14 52.6092 288.87C50.1792 288.48 47.6292 288.28 45.3092 287.45C44.1092 287.02 43.0892 286.22 42.9292 284.87C42.6892 282.77 44.7592 281.37 46.5592 280.96C47.8792 280.67 49.5092 280.79 50.8392 280.94C54.4992 281.35 63.3692 281.32 67.3392 281.49L117.279 283.06L135.519 283.19C136.329 283.23 138.889 283.26 141.889 283.3C150.029 283.39 157.969 280.78 164.479 275.9C174.129 268.66 178.269 259.11 182.109 247.68C183.679 242.99 187.289 236.38 191.009 233.24C202.159 223.83 217.779 230.41 221.609 244.2C224.239 253.66 223.149 264.24 221.069 273.69C217.669 289.11 209.649 299.68 195.029 306.84C180.679 313.86 163.709 314.71 148.179 315.6C138.949 316.13 129.649 316.33 120.359 315.43C116.669 315.07 113.139 313.9 109.599 312.84C106.059 311.78 102.279 310.57 98.6492 309.33C93.8292 307.69 89.0692 305.9 84.2192 304.43C82.9792 304.05 81.7492 303.67 80.5492 303.19C77.9092 302.13 75.1392 301.43 72.5092 300.35C70.7092 299.6 68.9192 298.84 67.1692 297.96C66.1392 297.45 65.2692 296.97 64.4292 296.2C63.5892 295.43 62.8192 294.63 62.2492 293.63C61.8192 292.88 61.3892 291.12 62.0192 290.29" stroke="#FF861C" stroke-width="1.8" stroke-miterlimit="10"/>
<path d="M64.0096 228.6L62.3696 218.37C62.3296 218.1 62.0096 217.98 61.7996 218.15L53.7596 224.68C53.5496 224.85 53.5996 225.19 53.8596 225.29L63.5396 228.99C63.7896 229.09 64.0596 228.87 64.0196 228.6H64.0096Z" fill="#FFB325"/>
<path d="M56.3194 206.75L66.4894 208.71C66.7594 208.76 66.9794 208.5 66.8894 208.25L63.4994 198.46C63.4094 198.2 63.0794 198.14 62.8994 198.34L56.1194 206.17C55.9394 206.38 56.0494 206.7 56.3194 206.75Z" fill="#00FF8B"/>
<path d="M68.8476 221.85L75.1576 230.07C75.3276 230.29 75.6576 230.24 75.7676 229.99L79.7276 220.42C79.8276 220.17 79.6276 219.9 79.3576 219.93L69.0876 221.28C68.8176 221.32 68.6876 221.63 68.8576 221.85H68.8476Z" fill="#9B00FF"/>
<path d="M209.762 202.32L216.072 210.54C216.242 210.76 216.572 210.71 216.682 210.46L220.642 200.89C220.742 200.64 220.542 200.37 220.272 200.4L210.002 201.75C209.732 201.79 209.602 202.1 209.772 202.32H209.762Z" fill="#00FF7F"/>
<path d="M223.99 215.12L214.2 218.51C213.94 218.6 213.88 218.93 214.08 219.11L221.91 225.89C222.12 226.07 222.44 225.96 222.49 225.69L224.45 215.52C224.5 215.25 224.24 215.03 223.99 215.12Z" fill="#FF9600"/>
<path d="M45.9805 336.73L54.6905 327.48C64.9905 316.54 83.7005 315.72 96.4905 325.66L107.71 334.37L45.9805 336.73Z" fill="#FFB325"/>
<path d="M107.609 333.9L117.399 325.85C128.969 316.33 147.739 316.33 159.309 325.85L169.469 334.21L107.609 333.91V333.9Z" fill="#FFB325"/>
<path d="M2 343.45C2 343.45 132.5 322.63 265.83 343.45" stroke="#7C5135" stroke-width="4" stroke-miterlimit="10" stroke-linecap="round"/>
<path d="M108.32 190.59L113.43 193.82L108.32 196.55" stroke="#090504" stroke-width="1.68" stroke-linecap="round" stroke-linejoin="round"/>
<path d="M127.28 196.55L122.16 193.31L127.28 190.59" stroke="#090504" stroke-width="1.68" stroke-linecap="round" stroke-linejoin="round"/>
</svg>
