<svg width="268" height="147" viewBox="0 0 268 147" fill="none" xmlns="http://www.w3.org/2000/svg">
<g clip-path="url(#clip0_1048_4328)">
<path d="M77.457 117.63C77.457 117.63 111.887 126.63 136.167 86.9601C139.197 82.0101 139.827 75.9501 137.857 70.5001L132.647 56.0401C130.587 50.3401 129.597 44.3201 129.707 38.2601C129.757 35.8301 131.737 33.8901 134.157 33.8901C136.787 33.8901 139.177 35.4201 140.277 37.8001L144.787 47.5501C146.487 51.2301 150.927 52.7301 154.507 50.8301L162.117 46.8101C164.147 45.7401 166.657 46.5101 167.727 48.5401L169.967 52.7801C170.337 53.4801 171.217 53.7501 171.917 53.3801C173.057 52.7701 174.467 53.1201 175.207 54.1801L185.077 68.5401C185.237 68.7801 185.327 69.0601 185.327 69.3601C185.327 70.0401 185.807 70.6301 186.477 70.7701H186.517C187.047 70.8901 187.467 71.2801 187.607 71.8001L188.357 74.4501C189.737 79.3501 188.047 84.6101 184.047 87.7501C181.027 90.1101 177.137 92.6301 172.797 94.1801C168.457 95.7301 164.827 98.7201 162.607 102.74C158.967 109.34 151.547 118.8 137.577 123.21" stroke="white" stroke-width="40" stroke-linecap="round" stroke-linejoin="round"/>
<path d="M170.88 53.5L162.52 60.48" stroke="white" stroke-width="40" stroke-linecap="round" stroke-linejoin="round"/>
<path d="M180.249 61.5098L168.559 71.5498" stroke="white" stroke-width="40" stroke-linecap="round" stroke-linejoin="round"/>
<path d="M185.789 70.4102L175.199 78.5502" stroke="white" stroke-width="40" stroke-linecap="round" stroke-linejoin="round"/>
<path d="M147.938 118.42C160.127 117.71 179.638 112.15 195.068 86.9499C198.098 81.9999 198.727 75.9399 196.757 70.4899L191.548 56.0299C189.488 50.3299 188.497 44.3099 188.607 38.2499C188.657 35.8199 190.637 33.8799 193.057 33.8799C195.687 33.8799 198.077 35.4099 199.177 37.7899L203.688 47.5399C205.388 51.2199 209.828 52.7199 213.408 50.8199L221.018 46.7999C223.048 45.7299 225.558 46.4999 226.628 48.5299L228.867 52.7699C229.237 53.4699 230.118 53.7399 230.818 53.3699C231.958 52.7599 233.367 53.1099 234.107 54.1699L243.977 68.5299C244.137 68.7699 244.227 69.0499 244.227 69.3499C244.227 70.0299 244.708 70.6199 245.378 70.7599H245.417C245.947 70.8799 246.367 71.2699 246.507 71.7899L247.257 74.4399C248.637 79.3399 246.947 84.5999 242.947 87.7399C239.927 90.0999 236.037 92.6199 231.697 94.1699C227.357 95.7199 223.727 98.7099 221.507 102.73C217.867 109.33 209.338 121.69 195.378 126.1" stroke="white" stroke-width="40" stroke-linecap="round" stroke-linejoin="round"/>
<path d="M229.77 53.5L221.41 60.48" stroke="white" stroke-width="40" stroke-linecap="round" stroke-linejoin="round"/>
<path d="M239.139 61.5098L227.449 71.5498" stroke="white" stroke-width="40" stroke-linecap="round" stroke-linejoin="round"/>
<path d="M244.68 70.4102L234.09 78.5502" stroke="white" stroke-width="40" stroke-linecap="round" stroke-linejoin="round"/>
<path d="M129.709 39.8701C113.119 26.3201 89.1186 15.9701 59.3486 28.5701C-0.391361 53.8401 25.6486 126.1 25.6486 126.1" stroke="white" stroke-width="40" stroke-linecap="round" stroke-linejoin="round"/>
<path d="M224.069 20L224.389 20.63C226.459 24.77 230.229 27.81 234.719 28.96C230.749 31.35 228.019 35.35 227.239 39.91L227.119 40.61L226.799 39.98C224.729 35.84 220.959 32.8 216.469 31.65C220.439 29.26 223.169 25.26 223.949 20.7L224.069 20Z" stroke="white" stroke-width="40" stroke-linecap="round" stroke-linejoin="round"/>
<path d="M78.4392 66.3599C79.5383 66.3599 80.4292 65.4689 80.4292 64.3699C80.4292 63.2708 79.5383 62.3799 78.4392 62.3799C77.3402 62.3799 76.4492 63.2708 76.4492 64.3699C76.4492 65.4689 77.3402 66.3599 78.4392 66.3599Z" fill="black" stroke="white" stroke-miterlimit="10"/>
<path d="M86.697 66.3599C87.7961 66.3599 88.687 65.4689 88.687 64.3699C88.687 63.2708 87.7961 62.3799 86.697 62.3799C85.598 62.3799 84.707 63.2708 84.707 64.3699C84.707 65.4689 85.598 66.3599 86.697 66.3599Z" fill="black" stroke="white" stroke-miterlimit="10"/>
<path d="M223.862 20L224.182 20.63C226.252 24.77 230.022 27.81 234.512 28.96C230.542 31.35 227.812 35.35 227.032 39.91L226.912 40.61L226.592 39.98C224.522 35.84 220.752 32.8 216.262 31.65C220.232 29.26 222.962 25.26 223.742 20.7L223.862 20Z" fill="#FF6B64"/>
<path d="M190.022 94.0702C190.022 94.0702 179.592 115.32 149.852 118.25L150.582 124.05L189.902 123.45C189.902 123.45 203.562 115.11 203.562 114.47C203.562 113.83 193.282 89.9502 193.282 89.9502L190.022 94.0602V94.0702Z" fill="#FFD140"/>
<path d="M164.91 46.2401L171.03 54.4201L173.42 53.1201L184.96 68.1901L186.32 71.9601L187.68 73.6401C187.68 73.6401 196.05 85.3001 169.55 95.5701L160.8 104.23L152.57 114.86L137.39 123.21L109.23 118.2L142.08 75.3301L130.92 48.0501L128.77 38.1801L131.89 33.3701L135.42 34.5401L138.76 35.8901C138.76 35.8901 141.92 40.4401 142.87 43.8201C143.82 47.2001 149.41 51.4701 149.41 51.4701L155.78 50.4001L162.15 46.8901L164.92 46.2401H164.91Z" fill="#FFD140"/>
<path d="M224.899 46.9301L229.099 53.8801L232.599 53.2201L244.099 70.5701L246.669 73.1201L246.819 76.0201C246.819 76.0201 252.939 85.8401 226.439 96.1001L219.479 106.38L211.179 116.91L196.529 125.59L190.759 96.3101L198.379 77.1901L189.369 51.1101L188.629 36.9401L192.249 33.8901L196.309 35.1501L198.669 38.0201C198.669 38.0201 201.059 42.8301 202.009 46.2101C202.959 49.5901 208.879 51.5801 208.879 51.5801L214.259 50.2701L220.469 46.9901L224.899 46.9301Z" fill="#FFD140"/>
<path d="M196.41 118.67H25.0898V126.1H196.41V118.67Z" fill="#FFD140"/>
<path d="M48.3312 123.185C61.6709 122.055 71.0905 104.673 69.3706 84.3613C67.6506 64.0492 55.4424 48.4986 42.1028 49.6281C28.7631 50.7577 19.3435 68.1396 21.0634 88.4517C22.7834 108.764 34.9916 124.314 48.3312 123.185Z" fill="#FFD140"/>
<path d="M37.0124 123.192C44.2384 122.361 48.7367 109.865 47.0596 95.2811C45.3825 80.6975 38.1652 69.5487 30.9392 70.3797C23.7133 71.2106 19.215 83.7066 20.8921 98.2903C22.5691 112.874 29.7865 124.023 37.0124 123.192Z" fill="#FFD140"/>
<path d="M84.4892 126.1C117.786 126.1 144.779 103.074 144.779 74.6702C144.779 46.2662 117.786 23.2402 84.4892 23.2402C51.192 23.2402 24.1992 46.2662 24.1992 74.6702C24.1992 103.074 51.192 126.1 84.4892 126.1Z" fill="#FFD140"/>
<path d="M29.3052 124.897C33.218 124.566 35.7231 116.423 34.9007 106.71C34.0782 96.997 30.2396 89.3915 26.3268 89.7229C22.4141 90.0542 19.9089 98.1967 20.7314 107.91C21.5538 117.623 25.3925 125.228 29.3052 124.897Z" fill="#FFD140"/>
<path d="M77.25 117.63C77.25 117.63 111.68 126.63 135.96 86.9601C138.99 82.0101 139.62 75.9501 137.65 70.5001L132.44 56.0401C130.38 50.3401 129.39 44.3201 129.5 38.2601C129.55 35.8301 131.53 33.8901 133.95 33.8901C136.58 33.8901 138.97 35.4201 140.07 37.8001L144.58 47.5501C146.28 51.2301 150.72 52.7301 154.3 50.8301L161.91 46.8101C163.94 45.7401 166.45 46.5101 167.52 48.5401L169.76 52.7801C170.13 53.4801 171.01 53.7501 171.71 53.3801C172.85 52.7701 174.26 53.1201 175 54.1801L184.87 68.5401C185.03 68.7801 185.12 69.0601 185.12 69.3601C185.12 70.0401 185.6 70.6301 186.27 70.7701H186.31C186.84 70.8901 187.26 71.2801 187.4 71.8001L188.15 74.4501C189.53 79.3501 187.84 84.6101 183.84 87.7501C180.82 90.1101 176.93 92.6301 172.59 94.1801C168.25 95.7301 164.62 98.7201 162.4 102.74C158.76 109.34 151.34 118.8 137.37 123.21" stroke="black" stroke-width="1.5" stroke-miterlimit="10"/>
<path d="M170.669 53.5L162.309 60.48" stroke="black" stroke-width="1.5" stroke-miterlimit="10" stroke-linecap="round"/>
<path d="M180.042 61.5098L168.352 71.5498" stroke="black" stroke-width="1.5" stroke-miterlimit="10" stroke-linecap="round"/>
<path d="M185.578 70.4102L174.988 78.5502" stroke="black" stroke-width="1.5" stroke-miterlimit="10" stroke-linecap="round"/>
<path d="M147.73 118.42C159.92 117.71 179.43 112.15 194.86 86.9499C197.89 81.9999 198.52 75.9399 196.55 70.4899L191.34 56.0299C189.28 50.3299 188.29 44.3099 188.4 38.2499C188.45 35.8199 190.43 33.8799 192.85 33.8799C195.48 33.8799 197.87 35.4099 198.97 37.7899L203.48 47.5399C205.18 51.2199 209.62 52.7199 213.2 50.8199L220.81 46.7999C222.84 45.7299 225.35 46.4999 226.42 48.5299L228.66 52.7699C229.03 53.4699 229.91 53.7399 230.61 53.3699C231.75 52.7599 233.16 53.1099 233.9 54.1699L243.77 68.5299C243.93 68.7699 244.02 69.0499 244.02 69.3499C244.02 70.0299 244.5 70.6199 245.17 70.7599H245.21C245.74 70.8799 246.16 71.2699 246.3 71.7899L247.05 74.4399C248.43 79.3399 246.74 84.5999 242.74 87.7399C239.72 90.0999 235.83 92.6199 231.49 94.1699C227.15 95.7199 223.52 98.7099 221.3 102.73C217.66 109.33 209.13 121.69 195.17 126.1" stroke="black" stroke-width="1.5" stroke-miterlimit="10"/>
<path d="M229.559 53.5L221.199 60.48" stroke="black" stroke-width="1.5" stroke-miterlimit="10" stroke-linecap="round"/>
<path d="M238.928 61.5098L227.238 71.5498" stroke="black" stroke-width="1.5" stroke-miterlimit="10" stroke-linecap="round"/>
<path d="M244.469 70.4102L233.879 78.5502" stroke="black" stroke-width="1.5" stroke-miterlimit="10" stroke-linecap="round"/>
<path d="M129.502 39.8701C112.912 26.3201 88.9116 15.9701 59.1416 28.5701C-0.598392 53.8401 25.4416 126.1 25.4416 126.1" stroke="black" stroke-width="1.5" stroke-miterlimit="10"/>
<path d="M45.8186 74.4902C45.8186 74.4902 44.3486 96.0202 63.6586 101C82.9686 105.98 94.5886 91.3002 94.5886 91.3002" stroke="black" stroke-width="1.5" stroke-miterlimit="10"/>
<path d="M223.862 20L224.182 20.63C226.252 24.77 230.022 27.81 234.512 28.96C230.542 31.35 227.812 35.35 227.032 39.91L226.912 40.61L226.592 39.98C224.522 35.84 220.752 32.8 216.262 31.65C220.232 29.26 222.962 25.26 223.742 20.7L223.862 20Z" stroke="black" stroke-width="1.5" stroke-miterlimit="10"/>
<path d="M78.2283 66.3599C79.3273 66.3599 80.2183 65.4689 80.2183 64.3699C80.2183 63.2708 79.3273 62.3799 78.2283 62.3799C77.1292 62.3799 76.2383 63.2708 76.2383 64.3699C76.2383 65.4689 77.1292 66.3599 78.2283 66.3599Z" fill="black"/>
<path d="M86.49 66.3599C87.589 66.3599 88.48 65.4689 88.48 64.3699C88.48 63.2708 87.589 62.3799 86.49 62.3799C85.391 62.3799 84.5 63.2708 84.5 64.3699C84.5 65.4689 85.391 66.3599 86.49 66.3599Z" fill="black"/>
<path d="M195.929 127.53H27.2987C22.1459 127.53 17.9688 131.707 17.9688 136.86C17.9688 142.013 22.1459 146.19 27.2987 146.19H195.929C201.082 146.19 205.259 142.013 205.259 136.86C205.259 131.707 201.082 127.53 195.929 127.53Z" fill="white"/>
<path d="M62.1408 126.1H42.0508V138.27H62.1408V126.1Z" fill="white"/>
</g>
<defs>
<clipPath id="clip0_1048_4328">
<rect width="267.72" height="146.18" fill="white"/>
</clipPath>
</defs>
</svg>
