<svg width="89" height="134" viewBox="0 -9 89 134" fill="none" xmlns="http://www.w3.org/2000/svg">
<mask id="mask0_0_1" style="mask-type:alpha" maskUnits="userSpaceOnUse" x="0" y="57" width="89" height="77">
<rect y="57" width="89" height="77" fill="#D9D9D9"/>
</mask>
<g mask="url(#mask0_0_1)">
<path d="M14.507 136.547C25.4416 124.272 50.673 101.066 77.2204 112.316C78.598 112.899 79.5082 114.424 79.5082 116.113V139.446C79.5082 141.68 78.1757 144.309 76.2323 144.309L16.9587 143.493C13.8018 143.493 12.2438 139.081 14.5028 136.543L14.507 136.547Z" fill="#252626"/>
<path d="M47.2332 107.979C61.6458 107.979 73.3296 96.9814 73.3296 83.4156C73.3296 69.8498 61.6458 58.8525 47.2332 58.8525C32.8205 58.8525 21.1367 69.8498 21.1367 83.4156C21.1367 96.9814 32.8205 107.979 47.2332 107.979Z" fill="#2D13AE"/>
<path d="M25.4648 87.647C25.4648 87.647 26.7645 90.3735 25.8871 94.4653" stroke="#26006E" stroke-width="0.8" stroke-miterlimit="10"/>
<path d="M25.0048 80.841C24.8695 81.0296 24.2217 82.0341 24.1766 82.112C23.6805 82.9689 23.2418 83.8955 23.0614 84.8754C22.922 85.6257 22.9507 86.4457 23.4263 87.0771C24.5825 88.6187 27.2762 87.9873 27.6082 86.0726C27.9444 84.1333 26.1897 82.1366 25.0048 80.8369V80.841Z" fill="#26006E"/>
<path d="M25.1498 84.0386C25.076 84.1411 24.7193 84.6946 24.6947 84.7397C24.4241 85.2112 24.1822 85.7196 24.0838 86.2608C24.0059 86.6708 24.0223 87.1259 24.2847 87.4744C24.9202 88.3231 26.4003 87.9746 26.5848 86.9209C26.7693 85.8549 25.8058 84.7561 25.1539 84.0427L25.1498 84.0386Z" fill="#2D13AE"/>
<path d="M28.169 101.107V103.083H23.7656V94.5144C23.7656 94.3299 23.9173 94.1782 24.1018 94.1782H27.8287C28.0132 94.1782 28.1649 94.3299 28.1649 94.5144V101.107" fill="#26006E"/>
<path d="M42.2953 87.1958C42.2953 87.1958 39.9788 91.2794 34.7227 90.9268" stroke="white" stroke-width="0.8" stroke-miterlimit="10" stroke-linecap="round"/>
<path d="M8.3986 123.665C8.3412 123.517 8.3125 123.353 8.3125 123.185V104.428C8.3125 103.686 8.9152 103.083 9.6573 103.083H44.8967C45.6388 103.083 46.2415 103.686 46.2415 104.428V123.185C46.2415 123.927 45.6388 124.53 44.8967 124.53H12.8594" fill="#2D13AE"/>
<path d="M46.2411 106.089C45.5154 106.089 44.7815 106.343 44.1993 106.851L42.6741 108.184C41.5138 109.201 39.7795 109.201 38.6192 108.184L37.1432 106.897C35.9829 105.88 34.2486 105.88 33.0883 106.897L31.805 108.02C30.6448 109.037 28.9105 109.037 27.7502 108.02L26.4874 106.917C25.3271 105.9 23.5928 105.9 22.4325 106.917L21.0672 108.11C19.9069 109.127 18.1726 109.127 17.0123 108.11L15.7208 106.983C14.5605 105.966 12.8262 105.966 11.6659 106.983L10.3867 108.102C9.79631 108.619 9.05421 108.873 8.32031 108.865V104.375C8.32031 103.666 8.89431 103.092 9.60361 103.092H45.2284C45.7942 103.092 46.2534 103.555 46.2534 104.121V106.097L46.2411 106.089Z" fill="#26006E"/>
<path d="M13.9011 124.291C14.0362 123.339 12.2901 122.303 10.0011 121.978C7.71203 121.654 5.7469 122.163 5.6118 123.116C5.47671 124.069 7.2228 125.104 9.51182 125.429C11.8008 125.754 13.766 125.244 13.9011 124.291Z" fill="#2D13AE"/>
<path d="M47.7648 127.932C48.3283 125.006 44.2409 121.759 38.6355 120.679C33.03 119.6 28.0291 121.097 27.4656 124.023C26.9021 126.949 30.9894 130.196 36.5949 131.276C42.2004 132.355 47.2013 130.858 47.7648 127.932Z" fill="#2D13AE"/>
<path d="M25.3508 130.983C32.0533 130.983 37.4868 128.647 37.4868 125.764C37.4868 122.882 32.0533 120.545 25.3508 120.545C18.6483 120.545 13.2148 122.882 13.2148 125.764C13.2148 128.647 18.6483 130.983 25.3508 130.983Z" fill="#2D13AE"/>
<path d="M42.729 127.835C42.729 130.717 37.2965 133.054 30.593 133.054C23.8895 133.054 18.457 130.717 18.457 127.835C18.457 124.952 23.8895 122.615 30.593 122.615C37.2965 122.615 42.729 124.952 42.729 127.835Z" fill="#2D13AE"/>
<path d="M46.6517 132.376C47.2152 129.45 42.4501 126.073 36.0086 124.832C29.5671 123.592 23.8885 124.958 23.325 127.884C22.7615 130.811 27.5266 134.188 33.9681 135.429C40.4096 136.669 46.0882 135.303 46.6517 132.376Z" fill="#2D13AE"/>
<path d="M16.4297 124.507C16.5648 123.554 15.344 122.593 13.7029 122.36C12.0618 122.128 10.6219 122.712 10.4868 123.664C10.3517 124.617 11.5726 125.578 13.2137 125.811C14.8548 126.044 16.2947 125.46 16.4297 124.507Z" fill="#2D13AE"/>
<path d="M43.981 135.455C50.7337 135.114 56.0873 132.447 55.9384 129.498C55.7895 126.549 50.1946 124.435 43.4418 124.776C36.6891 125.117 31.3355 127.784 31.4844 130.733C31.6333 133.682 37.2282 135.796 43.981 135.455Z" fill="#2D13AE"/>
<path d="M36.1 122.833C34.1771 123.042 32.2542 123.395 30.3313 123.604C29.1956 123.727 28.0148 123.866 27.039 124.465C26.6823 124.682 26.3543 124.969 26.1534 125.338C25.9525 125.707 25.8992 126.166 26.0755 126.548C26.3502 127.138 27.0677 127.363 27.7073 127.486C28.9537 127.724 30.2206 127.819 31.4875 127.909C33.7015 128.069 35.9196 128.229 38.1335 128.388" stroke="#26006E" stroke-miterlimit="10" stroke-linecap="round"/>
<path d="M62.2915 125.609H51.9308C49.5894 125.609 47.6914 127.507 47.6914 129.848V129.852C47.6914 132.194 49.5894 134.092 51.9308 134.092H62.2915C64.6328 134.092 66.5309 132.194 66.5309 129.852V129.848C66.5309 127.507 64.6328 125.609 62.2915 125.609Z" fill="#2D13AE"/>
<path d="M79.5962 112.676C80.3038 106.56 76.9516 101.148 72.1087 100.588C67.2659 100.027 62.7663 104.531 62.0586 110.647C61.351 116.763 64.7033 122.175 69.5461 122.736C74.389 123.296 78.8886 118.792 79.5962 112.676Z" fill="#2D13AE"/>
<path d="M57.68 135.244C66.2741 134.081 72.8987 130.609 72.4764 127.49C72.0542 124.371 64.745 122.786 56.1508 123.949C47.5567 125.113 40.9322 128.585 41.3544 131.704C41.7767 134.823 49.0859 136.408 57.68 135.244Z" fill="#2D13AE"/>
<path d="M76.0275 120.686C76.6462 113.753 73.3412 107.793 68.6455 107.374C63.9497 106.955 59.6415 112.236 59.0227 119.169C58.4039 126.102 61.709 132.062 66.4047 132.481C71.1005 132.9 75.4087 127.619 76.0275 120.686Z" fill="#2D13AE"/>
<path d="M60.1716 127.355C63.6836 127.355 66.5307 126.538 66.5307 125.531C66.5307 124.523 63.6836 123.706 60.1716 123.706C56.6596 123.706 53.8125 124.523 53.8125 125.531C53.8125 126.538 56.6596 127.355 60.1716 127.355Z" fill="#2D13AE"/>
<path d="M61.4018 125.002C64.8667 122.343 67.1781 119.538 66.5646 118.739C65.951 117.94 62.6448 119.448 59.1799 122.108C55.7151 124.767 53.4036 127.571 54.0172 128.371C54.6307 129.17 57.9369 127.662 61.4018 125.002Z" fill="#2D13AE"/>
<path d="M62.8367 122.957C65.8198 119.058 66.9259 114.893 65.3074 113.655C63.6889 112.417 59.9586 114.573 56.9755 118.472C53.9925 122.371 52.8863 126.536 54.5048 127.774C56.1233 129.012 59.8537 126.856 62.8367 122.957Z" fill="#2D13AE"/>
<path d="M77.622 122.529C79.1802 118.448 79.4282 114.753 78.1759 114.274C76.9236 113.796 74.6452 116.716 73.087 120.797C71.5288 124.878 71.2808 128.573 72.5331 129.051C73.7854 129.53 76.0638 126.609 77.622 122.529Z" fill="#2D13AE"/>
<path d="M58.9613 123.149H45.1484V129.635H58.9613V123.149Z" fill="#2D13AE"/>
<path d="M49.8563 123.295L43 121.975L41.5921 129.286L48.4484 130.607L49.8563 123.295Z" fill="#2D13AE"/>
<path d="M58.5435 118.684L47.1914 123.618L48.7733 127.258L60.1254 122.324L58.5435 118.684Z" fill="#2D13AE"/>
<path d="M23.8256 126.781C23.1573 126.74 16.3719 126.055 15.7036 125.998L15.3879 125.977C14.1169 125.887 12.85 125.743 11.5913 125.543C10.9189 125.436 10.2506 125.329 9.57818 125.219C8.58188 125.059 7.53638 124.977 6.58518 124.636C6.09318 124.46 5.67498 124.132 5.60939 123.579C5.51099 122.718 6.35968 122.144 7.09768 121.976C7.63888 121.857 8.30718 121.906 8.85248 121.967C10.3531 122.135 13.9898 122.123 15.6175 122.193L36.0928 122.837L43.5712 122.89C43.9033 122.906 44.9529 122.919 46.1829 122.935C49.5203 122.972 52.7757 121.902 55.4448 119.901C59.4012 116.933 61.0986 113.017 62.673 108.331C63.3167 106.408 64.7968 103.698 66.322 102.41C70.8935 98.5523 77.2977 101.25 78.868 106.904C79.9463 110.783 79.4994 115.12 78.6466 118.995C77.2526 125.317 73.9644 129.651 67.9702 132.586C62.0867 135.465 55.1291 135.813 48.7618 136.178C44.9775 136.395 41.1645 136.477 37.3556 136.108C35.8427 135.961 34.3954 135.481 32.944 135.046C31.4926 134.612 29.9428 134.116 28.4545 133.607C26.4783 132.935 24.5267 132.201 22.5382 131.598C22.0298 131.442 21.5255 131.287 21.0335 131.09C19.9512 130.655 18.8155 130.368 17.7372 129.925C16.9992 129.618 16.2653 129.306 15.5478 128.946C15.1255 128.736 14.7688 128.54 14.4244 128.224C14.08 127.908 13.7643 127.58 13.5306 127.17C13.3543 126.863 13.178 126.141 13.4363 125.801" stroke="#26006E" stroke-miterlimit="10"/>
<path d="M14.2522 100.509L13.5798 96.3144C13.5634 96.2037 13.4322 96.1545 13.3461 96.2242L10.0497 98.9015C9.96359 98.9712 9.98409 99.1106 10.0907 99.1516L14.0595 100.669C14.162 100.71 14.2727 100.619 14.2563 100.509H14.2522Z" fill="#2D13AE"/>
<path d="M11.0986 91.5496L15.2683 92.3532C15.379 92.3737 15.4692 92.2671 15.4323 92.1646L14.0424 88.1507C14.0055 88.0441 13.8702 88.0195 13.7964 88.1015L11.0166 91.3118C10.9428 91.3979 10.9879 91.5291 11.0986 91.5496Z" fill="#00FF8B"/>
<path d="M16.2382 97.7408L18.8252 101.111C18.8949 101.201 19.0302 101.181 19.0753 101.078L20.6989 97.1545C20.7399 97.052 20.6579 96.9413 20.5472 96.9536L16.3366 97.5071C16.2259 97.5235 16.1726 97.6506 16.2423 97.7408H16.2382Z" fill="#9B00FF"/>
<path d="M74.0077 89.7334L76.5948 93.1036C76.6645 93.1938 76.7998 93.1733 76.8449 93.0708L78.4685 89.1472C78.5095 89.0447 78.4275 88.934 78.3168 88.9463L74.1061 89.4998C73.9954 89.5161 73.9421 89.6432 74.0118 89.7334H74.0077Z" fill="#00FF7F"/>
<path d="M79.8424 94.9815L75.8285 96.3714C75.7219 96.4083 75.6973 96.5436 75.7793 96.6174L78.9896 99.3972C79.0757 99.471 79.2069 99.4259 79.2274 99.3152L80.031 95.1455C80.0515 95.0348 79.9449 94.9446 79.8424 94.9815Z" fill="#26006E"/>
<path d="M32.418 84.9243L34.5131 86.2486L32.418 87.3679" stroke="white" stroke-width="0.8" stroke-linecap="round" stroke-linejoin="round"/>
<path d="M40.1929 87.3679L38.0938 86.0395L40.1929 84.9243" stroke="white" stroke-width="0.8" stroke-linecap="round" stroke-linejoin="round"/>
</g>
<path d="M25.9721 16.544C25.8121 16.544 25.7214 16.4373 25.7001 16.224C26.0627 14.6987 26.6227 12.5653 27.3801 9.824C27.4547 9.57867 27.5561 9.21067 27.6841 8.72C27.3427 8.816 27.1081 8.928 26.9801 9.056C26.8521 9.184 26.7881 9.34933 26.7881 9.552C26.7881 9.70133 26.7614 9.81867 26.7081 9.904C26.6654 9.97867 26.5641 10.016 26.4041 10.016C26.1801 10.016 26.0681 9.86133 26.0681 9.552C26.0681 9.15733 26.2067 8.848 26.4841 8.624C26.7614 8.38933 27.2254 8.18667 27.8761 8.016C28.1641 6.81067 28.4574 4.816 28.7561 2.032L28.8841 0.895999C28.9161 0.639999 29.0707 0.511999 29.3481 0.511999C29.4547 0.511999 29.5294 0.533333 29.5721 0.575999C29.6147 0.618666 29.6307 0.687999 29.6201 0.783999C29.4921 2.29867 29.1721 4.64 28.6601 7.808C30.2387 7.40267 32.2707 7.14133 34.7561 7.024C35.0014 5.22133 35.2947 3.392 35.6361 1.536L35.7641 0.735999C35.7854 0.618666 35.8387 0.527999 35.9241 0.463999C36.0201 0.389332 36.1214 0.351999 36.2281 0.351999C36.3027 0.351999 36.3667 0.378666 36.4201 0.431999C36.4734 0.474666 36.5001 0.538666 36.5001 0.624C36.5001 0.666666 36.4147 1.21067 36.2441 2.256C35.8174 4.89067 35.5667 6.47467 35.4921 7.008H37.2841C37.3694 7.008 37.4334 7.04 37.4761 7.104C37.5294 7.15733 37.5561 7.22133 37.5561 7.296C37.5561 7.38133 37.5187 7.472 37.4441 7.568C37.3694 7.65333 37.2787 7.712 37.1721 7.744L35.3801 7.728C35.3161 8.24 35.1507 9.17867 34.8841 10.544C34.6601 11.7387 34.4894 12.72 34.3721 13.488C34.2547 14.2453 34.1801 14.992 34.1481 15.728C34.1374 15.856 34.0787 15.9627 33.9721 16.048C33.8761 16.1333 33.7801 16.176 33.6841 16.176C33.5241 16.176 33.4334 16.064 33.4121 15.84C33.4547 14.6133 33.7481 12.64 34.2921 9.92L34.4361 9.168L34.6601 7.76C32.1854 7.856 30.1214 8.128 28.4681 8.576C28.2014 9.664 27.8494 10.976 27.4121 12.512C26.9641 14.112 26.6334 15.3493 26.4201 16.224C26.3027 16.4373 26.1534 16.544 25.9721 16.544ZM43.2347 16.032C42.9894 16.032 42.76 15.904 42.5467 15.648C42.344 15.3813 42.2427 15.0987 42.2427 14.8C42.2427 14.1387 42.4187 13.0187 42.7707 11.44C42.504 12.016 42.1574 12.608 41.7307 13.216C41.3147 13.8133 40.904 14.3413 40.4987 14.8C40.0934 15.2587 39.7947 15.5573 39.6027 15.696C39.336 15.8987 39.0427 16 38.7227 16C38.1147 16 37.8107 15.616 37.8107 14.848C37.8107 14.1013 38.0934 13.1733 38.6587 12.064C39.224 10.944 39.896 9.97333 40.6747 9.152C41.4534 8.34133 42.0827 7.936 42.5627 7.936C43.0534 7.936 43.3307 8.14933 43.3947 8.576C43.4267 8.704 43.4427 8.84267 43.4427 8.992C43.496 8.96 43.5547 8.944 43.6187 8.944C43.864 8.944 43.9867 9.06133 43.9867 9.296V9.36L43.7947 10.064C43.6454 10.5973 43.4907 11.3867 43.3307 12.432C43.1707 13.4773 43.0907 14.3467 43.0907 15.04L43.2507 15.136C43.5067 15.296 43.6347 15.456 43.6347 15.616C43.6347 15.7227 43.5974 15.8187 43.5227 15.904C43.448 15.9893 43.352 16.032 43.2347 16.032ZM38.8507 15.168C38.968 15.168 39.064 15.1307 39.1387 15.056C40.2267 14.128 41.192 12.8427 42.0347 11.2C42.3974 10.5173 42.6214 10.0693 42.7067 9.856C42.8027 9.64267 42.8507 9.43467 42.8507 9.232C42.8507 9.12533 42.824 9.02933 42.7707 8.944C42.7174 8.85867 42.648 8.816 42.5627 8.816C42.456 8.816 42.3174 8.864 42.1467 8.96C41.72 9.184 41.2134 9.65867 40.6267 10.384C40.0507 11.1093 39.576 11.8773 39.2027 12.688C38.808 13.5093 38.6107 14.24 38.6107 14.88C38.6107 15.072 38.6907 15.168 38.8507 15.168ZM44.3262 22.56C44.1662 22.56 44.0755 22.4533 44.0542 22.24C44.3742 21.024 44.6515 19.808 44.8862 18.592L45.3662 16.08L45.8462 13.568L45.9742 12.896C46.4009 10.6773 46.6889 9.19467 46.8382 8.448V8.096C46.8382 7.98933 46.8862 7.888 46.9822 7.792C47.0782 7.696 47.1902 7.648 47.3182 7.648C47.4355 7.648 47.5262 7.696 47.5902 7.792C47.6542 7.87733 47.6862 7.97333 47.6862 8.08C47.6862 8.22933 47.6595 8.384 47.6062 8.544L47.5422 8.752C47.5209 8.83733 47.5102 8.896 47.5102 8.928L47.2862 10.08C48.0542 8.61867 48.8755 7.888 49.7502 7.888C50.2089 7.888 50.5395 8.02667 50.7422 8.304C50.9555 8.57067 51.0622 8.976 51.0622 9.52C51.0622 10.544 50.9182 11.5627 50.6302 12.576C50.3422 13.5893 49.9262 14.4427 49.3822 15.136C48.8275 15.8507 48.1662 16.208 47.3982 16.208C47.0995 16.208 46.8595 16.144 46.6782 16.016C46.5075 15.8987 46.3689 15.6907 46.2622 15.392L46.0702 16.336C45.8142 17.5093 45.6275 18.3947 45.5102 18.992C45.2542 20.2933 45.0089 21.376 44.7742 22.24C44.6782 22.4533 44.5289 22.56 44.3262 22.56ZM47.5102 15.456C48.0649 15.456 48.5822 15.104 49.0622 14.4C49.6595 13.4933 50.0542 12.304 50.2462 10.832C50.2995 10.3733 50.3262 9.97867 50.3262 9.648C50.3262 8.95467 50.1555 8.608 49.8142 8.608C49.4729 8.608 49.0835 8.85333 48.6462 9.344C48.0489 10.016 47.5582 10.8267 47.1742 11.776C46.7902 12.7147 46.5982 13.5307 46.5982 14.224C46.5982 15.0453 46.9022 15.456 47.5102 15.456ZM51.0137 22.56C50.8537 22.56 50.763 22.4533 50.7417 22.24C51.0617 21.024 51.339 19.808 51.5737 18.592L52.0537 16.08L52.5337 13.568L52.6617 12.896C53.0884 10.6773 53.3764 9.19467 53.5257 8.448V8.096C53.5257 7.98933 53.5737 7.888 53.6697 7.792C53.7657 7.696 53.8777 7.648 54.0057 7.648C54.123 7.648 54.2137 7.696 54.2777 7.792C54.3417 7.87733 54.3737 7.97333 54.3737 8.08C54.3737 8.22933 54.347 8.384 54.2937 8.544L54.2297 8.752C54.2084 8.83733 54.1977 8.896 54.1977 8.928L53.9737 10.08C54.7417 8.61867 55.563 7.888 56.4377 7.888C56.8964 7.888 57.227 8.02667 57.4297 8.304C57.643 8.57067 57.7497 8.976 57.7497 9.52C57.7497 10.544 57.6057 11.5627 57.3177 12.576C57.0297 13.5893 56.6137 14.4427 56.0697 15.136C55.515 15.8507 54.8537 16.208 54.0857 16.208C53.787 16.208 53.547 16.144 53.3657 16.016C53.195 15.8987 53.0564 15.6907 52.9497 15.392L52.7577 16.336C52.5017 17.5093 52.315 18.3947 52.1977 18.992C51.9417 20.2933 51.6964 21.376 51.4617 22.24C51.3657 22.4533 51.2164 22.56 51.0137 22.56ZM54.1977 15.456C54.7524 15.456 55.2697 15.104 55.7497 14.4C56.347 13.4933 56.7417 12.304 56.9337 10.832C56.987 10.3733 57.0137 9.97867 57.0137 9.648C57.0137 8.95467 56.843 8.608 56.5017 8.608C56.1604 8.608 55.771 8.85333 55.3337 9.344C54.7364 10.016 54.2457 10.8267 53.8617 11.776C53.4777 12.7147 53.2857 13.5307 53.2857 14.224C53.2857 15.0453 53.5897 15.456 54.1977 15.456ZM59.3332 22.672C58.9919 22.672 58.6879 22.5813 58.4212 22.4C58.1652 22.2187 57.9679 21.9893 57.8292 21.712C57.6905 21.4453 57.6212 21.1787 57.6212 20.912C57.6212 20.2613 57.7972 19.68 58.1492 19.168C58.4052 18.7947 58.8319 18.3947 59.4292 17.968C59.9732 17.5627 60.2932 17.3387 60.3892 17.296L61.7812 16.272C61.8132 16.1227 62.0105 15.4613 62.3732 14.288L62.5812 13.632C62.6559 13.3653 62.7305 13.12 62.8052 12.896C62.8799 12.672 62.9332 12.4853 62.9652 12.336C62.5065 13.6693 61.9572 14.688 61.3172 15.392C60.8905 15.8827 60.4745 16.128 60.0692 16.128C59.6639 16.128 59.3332 15.968 59.0772 15.648C58.8319 15.3173 58.7092 14.8693 58.7092 14.304C58.7092 13.408 58.9652 11.9947 59.4772 10.064C59.7332 9.104 59.8612 8.58667 59.8612 8.512C59.8505 8.46933 59.8452 8.42133 59.8452 8.368C59.8452 8.29333 59.8612 8.23467 59.8932 8.192C60.0425 7.98933 60.2185 7.888 60.4212 7.888C60.6239 7.888 60.7252 7.99467 60.7252 8.208C60.7252 8.42133 60.5279 9.31733 60.1332 10.896C59.7385 12.4747 59.5412 13.5467 59.5412 14.112C59.5412 14.6667 59.6105 15.0133 59.7492 15.152C59.8772 15.2907 60.0372 15.36 60.2292 15.36C60.6345 15.36 61.0665 15.0187 61.5252 14.336C61.8879 13.8027 62.2079 13.088 62.4852 12.192C62.7732 11.2853 63.0399 10.3307 63.2852 9.328L63.3652 9.008C63.4825 8.528 63.5839 8.22933 63.6692 8.112C63.7545 7.984 63.8825 7.92 64.0532 7.92C64.2239 7.92 64.3092 7.984 64.3092 8.112C64.3092 8.26133 64.0799 9.34933 63.6212 11.376C63.1732 13.264 62.8532 14.672 62.6612 15.6C62.8745 15.4187 63.0612 15.248 63.2212 15.088C63.4345 14.8747 63.5892 14.7253 63.6852 14.64C63.7919 14.5547 63.8879 14.512 63.9732 14.512C64.1759 14.512 64.2772 14.6027 64.2772 14.784C64.2772 14.88 64.2345 14.9867 64.1492 15.104C63.5732 15.616 63.0185 16.0747 62.4852 16.48C62.2292 17.888 61.9892 19.0027 61.7652 19.824C61.5412 20.656 61.2319 21.3387 60.8372 21.872C60.4532 22.4053 59.9519 22.672 59.3332 22.672ZM59.3492 21.904C59.9999 21.904 60.5545 21.152 61.0132 19.648L61.3812 18.24L61.5892 17.2C61.1732 17.52 60.7679 17.8133 60.3732 18.08C59.9785 18.3467 59.6532 18.5867 59.3972 18.8C59.1519 19.0133 58.9279 19.2853 58.7252 19.616C58.5332 19.9467 58.4372 20.3253 58.4372 20.752C58.4372 21.1893 58.5812 21.5253 58.8692 21.76C58.9759 21.856 59.1359 21.904 59.3492 21.904ZM20.7326 30.064C21.3192 30.096 21.8739 30.2933 22.3966 30.656C22.9192 31.008 23.3406 31.4507 23.6606 31.984C23.9806 32.5067 24.1406 33.0293 24.1406 33.552C24.1406 35.0453 23.5699 36.1813 22.4286 36.96C21.2872 37.7387 19.6979 38.128 17.6606 38.128L17.3246 38.112C17.2926 38.2613 17.2766 38.3893 17.2766 38.496C17.2446 38.624 17.1859 38.7307 17.1006 38.816C17.0152 38.912 16.9246 38.96 16.8286 38.96C16.6472 38.96 16.5459 38.8533 16.5246 38.64C16.5459 38.4267 16.5832 38.2133 16.6366 38L16.1726 37.904C15.7566 37.8293 15.4846 37.744 15.3566 37.648C15.2286 37.5413 15.1646 37.4133 15.1646 37.264C15.1646 37.2 15.1966 37.136 15.2606 37.072C15.3246 36.9973 15.3832 36.96 15.4366 36.96C15.4686 36.96 15.5806 36.992 15.7726 37.056C15.9752 37.12 16.1512 37.1733 16.3006 37.216C16.4392 37.248 16.6046 37.264 16.7966 37.264L18.3486 30.512L17.8686 30.496C17.7086 30.496 17.6286 30.4053 17.6286 30.224C17.6286 29.968 17.9166 29.84 18.4926 29.84C18.6739 29.0933 18.8552 28.1653 19.0366 27.056C19.1539 26.2987 19.2659 25.6533 19.3726 25.12C19.4899 24.5867 19.6392 24.0427 19.8206 23.488C19.7246 23.5307 19.5646 23.6427 19.3406 23.824C19.2659 23.8987 19.1859 23.968 19.1006 24.032C19.0152 24.0853 18.9406 24.112 18.8766 24.112C18.8126 24.112 18.7486 24.0853 18.6846 24.032C18.6312 23.9787 18.6046 23.8987 18.6046 23.792C18.6046 23.5573 18.7539 23.344 19.0526 23.152C19.3512 22.96 19.7139 22.8213 20.1406 22.736C20.2046 22.6293 20.2846 22.576 20.3806 22.576C20.4659 22.576 20.5512 22.6187 20.6366 22.704C21.6286 22.736 22.4232 23.0773 23.0206 23.728C23.6179 24.3787 23.9166 25.2427 23.9166 26.32C23.9166 26.896 23.7619 27.4613 23.4526 28.016C23.1539 28.56 22.7592 29.0187 22.2686 29.392C21.7779 29.7653 21.2659 29.9893 20.7326 30.064ZM20.4766 23.392C20.2952 24 20.1512 24.5813 20.0446 25.136C19.9379 25.6907 19.8206 26.3627 19.6926 27.152C19.6606 27.312 19.5966 27.6693 19.5006 28.224C19.4152 28.768 19.3139 29.3013 19.1966 29.824C19.9112 29.824 20.5672 29.6693 21.1646 29.36C21.7726 29.04 22.2526 28.6133 22.6046 28.08C22.9566 27.5467 23.1326 26.9653 23.1326 26.336C23.1326 25.3973 22.8926 24.6773 22.4126 24.176C21.9326 23.6747 21.2872 23.4133 20.4766 23.392ZM18.0926 37.408C19.2126 37.408 20.1672 37.2587 20.9566 36.96C21.7566 36.6507 22.3646 36.2133 22.7806 35.648C23.1966 35.0827 23.4046 34.416 23.4046 33.648C23.4046 33.1253 23.2339 32.6293 22.8926 32.16C22.5619 31.68 22.1246 31.296 21.5806 31.008C21.0366 30.72 20.4712 30.576 19.8846 30.576C19.5432 30.576 19.2606 30.5653 19.0366 30.544C18.8659 31.2907 18.6046 32.4373 18.2526 33.984C17.9006 35.52 17.6392 36.6507 17.4686 37.376C17.6606 37.3973 17.8686 37.408 18.0926 37.408ZM25.7353 38.16C25.3726 38.16 25.1913 37.8667 25.1913 37.28C25.1913 37.1307 25.218 36.9973 25.2713 36.88C25.3246 36.6987 25.3726 36.4907 25.4153 36.256L25.6553 35.184L25.9753 33.776C26.082 33.2533 26.21 32.6667 26.3593 32.016C26.3806 31.952 26.402 31.8453 26.4233 31.696C26.53 31.2373 26.5833 30.9707 26.5833 30.896V30.736C26.5833 30.6507 26.546 30.4747 26.4713 30.208C26.4713 30.08 26.514 29.9627 26.5993 29.856C26.6953 29.7493 26.8073 29.696 26.9353 29.696C27.0526 29.696 27.154 29.776 27.2393 29.936C27.3246 30.096 27.3673 30.272 27.3673 30.464C27.3673 30.6773 27.122 31.8293 26.6313 33.92C26.1406 36.0107 25.8953 37.12 25.8953 37.248C25.8953 37.3653 25.9486 37.424 26.0553 37.424C26.1086 37.424 26.2046 37.3547 26.3433 37.216C26.4713 37.088 26.578 37.024 26.6633 37.024C26.834 37.024 26.9193 37.1307 26.9193 37.344C26.9193 37.472 26.8446 37.6 26.6953 37.728C26.546 37.856 26.3753 37.9573 26.1833 38.032C25.9913 38.1173 25.842 38.16 25.7353 38.16ZM27.3513 28.496C27.1806 28.496 27.0526 28.4747 26.9673 28.432H26.9033C26.594 28.432 26.4393 28.2507 26.4393 27.888C26.4393 27.7067 26.514 27.5413 26.6633 27.392C26.8233 27.2427 26.994 27.168 27.1753 27.168C27.3566 27.168 27.5273 27.232 27.6873 27.36C27.8686 27.5413 27.9593 27.7173 27.9593 27.888C27.9593 28.048 27.8953 28.192 27.7673 28.32C27.65 28.4373 27.5113 28.496 27.3513 28.496ZM28.9812 38.256C28.8319 38.256 28.7572 38.16 28.7572 37.968L29.1252 36.064L29.7972 32.688C30.0959 31.1947 30.2452 30.448 30.2452 30.448C30.2879 30.2133 30.3465 30.0427 30.4212 29.936C30.4959 29.8293 30.5919 29.776 30.7092 29.776C30.8159 29.776 30.8959 29.8027 30.9492 29.856C31.0132 29.9093 31.0452 30.0053 31.0452 30.144C31.0452 30.3893 30.9705 30.7627 30.8212 31.264C30.7465 31.5093 30.6932 31.7173 30.6612 31.888C30.6185 32.0373 30.5705 32.208 30.5172 32.4C30.4639 32.5813 30.4052 32.7947 30.3412 33.04C30.6292 32.3893 30.9012 31.872 31.1572 31.488C31.4132 31.0933 31.7332 30.72 32.1172 30.368C32.4799 30.0587 32.8425 29.904 33.2052 29.904C33.4719 29.904 33.6959 29.9627 33.8772 30.08C34.0585 30.1867 34.1492 30.3147 34.1492 30.464C34.1492 30.5813 34.1065 30.6773 34.0212 30.752C33.9359 30.816 33.8292 30.848 33.7012 30.848C33.6052 30.848 33.5145 30.8267 33.4292 30.784C33.3652 30.7307 33.2799 30.704 33.1732 30.704C33.0345 30.704 32.8319 30.8 32.5652 30.992C32.0639 31.3547 31.6372 31.8347 31.2852 32.432C30.9439 33.0187 30.6719 33.616 30.4692 34.224C30.2772 34.8213 30.0692 35.5467 29.8452 36.4L29.7012 36.992C29.5412 37.8347 29.3012 38.256 28.9812 38.256ZM35.8687 38.064C35.4954 38.064 35.2127 37.968 35.0207 37.776C34.8394 37.584 34.7487 37.2373 34.7487 36.736C34.7487 36.4587 34.7807 36.1387 34.8447 35.776L34.9887 34.864L35.1647 34.112L35.2607 33.68L35.4687 32.8C35.49 32.6613 35.538 32.4373 35.6127 32.128L35.6927 31.808L35.8367 31.12L35.9327 30.64C35.5167 30.64 35.1327 30.6667 34.7807 30.72C34.5674 30.688 34.4607 30.5973 34.4607 30.448C34.4607 30.3413 34.5034 30.24 34.5887 30.144C34.674 30.048 34.7754 29.9947 34.8927 29.984L36.0447 30.016C36.0447 30.016 36.0714 29.8827 36.1247 29.616C36.146 29.4027 36.1887 29.1573 36.2527 28.88C36.3167 28.6027 36.3967 28.3573 36.4927 28.144C36.5887 27.9093 36.7274 27.792 36.9087 27.792C37.0794 27.792 37.1647 27.888 37.1647 28.08V28.176C37.122 28.3893 37.0847 28.544 37.0527 28.64L36.7807 30H37.9327C38.338 30 38.5887 30.032 38.6847 30.096C38.77 30.16 38.8127 30.24 38.8127 30.336C38.8127 30.5067 38.7327 30.6187 38.5727 30.672C38.4234 30.7147 38.162 30.736 37.7887 30.736C37.4474 30.736 37.0687 30.72 36.6527 30.688C36.5887 31.04 36.37 32.016 35.9967 33.616C35.6554 35.0667 35.4847 35.984 35.4847 36.368C35.4847 36.784 35.5327 37.056 35.6287 37.184C35.682 37.2693 35.794 37.312 35.9647 37.312C36.114 37.312 36.242 37.2747 36.3487 37.2C36.466 37.1147 36.5834 37.0027 36.7007 36.864C36.818 36.7147 36.9194 36.6027 37.0047 36.528C37.09 36.4533 37.1807 36.416 37.2767 36.416C37.49 36.416 37.5967 36.5227 37.5967 36.736C37.5967 36.8427 37.49 37.0187 37.2767 37.264C37.0634 37.5093 36.8607 37.7067 36.6687 37.856C36.498 37.9947 36.2314 38.064 35.8687 38.064ZM39.7792 38.128C39.5979 38.128 39.5072 38.0373 39.5072 37.856C39.5072 37.7067 40.0299 35.2267 41.0752 30.416C41.3739 28.976 41.6672 27.52 41.9552 26.048C42.2539 24.5653 42.4725 23.4827 42.6112 22.8C42.6645 22.64 42.7552 22.56 42.8832 22.56C43.1605 22.56 43.3312 22.6933 43.3952 22.96C43.2459 23.728 43.0059 24.912 42.6752 26.512C42.3445 28.1013 42.0619 29.4507 41.8272 30.56L41.2192 33.36C42.3072 31.12 43.3365 30 44.3072 30C44.6805 30 44.9685 30.1493 45.1712 30.448C45.3739 30.736 45.4752 31.0827 45.4752 31.488C45.4752 31.8827 45.4059 32.4053 45.2672 33.056L45.0112 34.4C44.7125 35.9467 44.5632 36.8267 44.5632 37.04L44.5952 37.664C44.5952 37.8027 44.5472 37.9147 44.4512 38C44.3659 38.0747 44.2485 38.112 44.0992 38.112C43.9605 38.112 43.8539 38.0693 43.7792 37.984C43.7045 37.888 43.6672 37.76 43.6672 37.6C43.6672 37.504 43.6725 37.4293 43.6832 37.376L44.6112 32.176C44.6432 32.016 44.6592 31.824 44.6592 31.6C44.6592 31.0667 44.5099 30.8 44.2112 30.8C43.8699 30.8 43.4645 31.0987 42.9952 31.696C42.5259 32.2827 42.0832 32.9493 41.6672 33.696C41.2619 34.4427 41.0059 34.976 40.8992 35.296C40.7712 35.68 40.6485 36.112 40.5312 36.592C40.4139 37.0613 40.3552 37.36 40.3552 37.488C40.3659 37.7547 40.3392 37.9253 40.2752 38C40.2112 38.0853 40.0459 38.128 39.7792 38.128ZM50.9116 38.288C50.7836 38.288 50.6662 38.1387 50.5596 37.84C50.4636 37.5307 50.4156 37.248 50.4156 36.992C50.4156 36.7787 50.4476 36.528 50.5116 36.24C50.2876 36.9013 50.0049 37.3867 49.6636 37.696C49.3222 37.9947 48.8849 38.144 48.3516 38.144C47.8502 38.144 47.4716 37.9413 47.2156 37.536C46.9596 37.12 46.8316 36.656 46.8316 36.144C46.8316 34.5547 47.1302 33.2053 47.7276 32.096C48.0156 31.5947 48.2662 31.2213 48.4796 30.976C48.6929 30.72 48.9702 30.48 49.3116 30.256C49.6422 30.032 50.0582 29.92 50.5596 29.92C51.0502 29.92 51.4076 30.16 51.6316 30.64L51.9036 29.44C52.2556 27.9147 52.5489 26.576 52.7836 25.424L53.0716 23.984L53.2476 23.152C53.2476 23.024 53.2902 22.912 53.3756 22.816C53.4716 22.7093 53.5729 22.656 53.6796 22.656C53.9036 22.656 54.0156 22.7787 54.0156 23.024V23.088C54.0156 23.376 53.8342 24.3467 53.4716 26C53.0982 27.7173 52.8582 28.9067 52.7516 29.568C52.6342 30.2507 52.4262 31.2107 52.1276 32.448L51.9036 33.328C51.6582 34.2667 51.4769 35.008 51.3596 35.552C51.2529 36.096 51.2049 36.56 51.2156 36.944C51.2156 37.232 51.2636 37.5307 51.3596 37.84C51.3489 37.9573 51.2902 38.0587 51.1836 38.144C51.0876 38.24 50.9969 38.288 50.9116 38.288ZM48.4956 37.36C48.7409 37.36 49.0876 37.0507 49.5356 36.432C49.9942 35.8027 50.3942 35.0507 50.7356 34.176C51.0769 33.3013 51.2476 32.496 51.2476 31.76C51.2476 31.472 51.1622 31.2053 50.9916 30.96C50.8316 30.7147 50.6182 30.592 50.3516 30.592C49.8609 30.592 49.4022 30.9013 48.9756 31.52C48.5489 32.128 48.2022 32.8907 47.9356 33.808C47.6796 34.672 47.5516 35.3973 47.5516 35.984C47.5516 36.3787 47.6262 36.7093 47.7756 36.976C47.9356 37.232 48.1756 37.36 48.4956 37.36ZM59.0628 38.032C58.8175 38.032 58.5881 37.904 58.3748 37.648C58.1721 37.3813 58.0708 37.0987 58.0708 36.8C58.0708 36.1387 58.2468 35.0187 58.5988 33.44C58.3321 34.016 57.9855 34.608 57.5588 35.216C57.1428 35.8133 56.7321 36.3413 56.3268 36.8C55.9215 37.2587 55.6228 37.5573 55.4308 37.696C55.1641 37.8987 54.8708 38 54.5508 38C53.9428 38 53.6388 37.616 53.6388 36.848C53.6388 36.1013 53.9215 35.1733 54.4868 34.064C55.0521 32.944 55.7241 31.9733 56.5028 31.152C57.2815 30.3413 57.9108 29.936 58.3908 29.936C58.8815 29.936 59.1588 30.1493 59.2228 30.576C59.2548 30.704 59.2708 30.8427 59.2708 30.992C59.3241 30.96 59.3828 30.944 59.4468 30.944C59.6921 30.944 59.8148 31.0613 59.8148 31.296V31.36L59.6228 32.064C59.4735 32.5973 59.3188 33.3867 59.1588 34.432C58.9988 35.4773 58.9188 36.3467 58.9188 37.04L59.0788 37.136C59.3348 37.296 59.4628 37.456 59.4628 37.616C59.4628 37.7227 59.4255 37.8187 59.3508 37.904C59.2761 37.9893 59.1801 38.032 59.0628 38.032ZM54.6788 37.168C54.7961 37.168 54.8921 37.1307 54.9668 37.056C56.0548 36.128 57.0201 34.8427 57.8628 33.2C58.2255 32.5173 58.4495 32.0693 58.5348 31.856C58.6308 31.6427 58.6788 31.4347 58.6788 31.232C58.6788 31.1253 58.6521 31.0293 58.5988 30.944C58.5455 30.8587 58.4761 30.816 58.3908 30.816C58.2841 30.816 58.1455 30.864 57.9748 30.96C57.5481 31.184 57.0415 31.6587 56.4548 32.384C55.8788 33.1093 55.4041 33.8773 55.0308 34.688C54.6361 35.5093 54.4388 36.24 54.4388 36.88C54.4388 37.072 54.5188 37.168 54.6788 37.168ZM61.7863 44.672C61.445 44.672 61.141 44.5813 60.8743 44.4C60.6183 44.2187 60.421 43.9893 60.2823 43.712C60.1436 43.4453 60.0743 43.1787 60.0743 42.912C60.0743 42.2613 60.2503 41.68 60.6023 41.168C60.8583 40.7947 61.285 40.3947 61.8823 39.968C62.4263 39.5627 62.7463 39.3387 62.8423 39.296L64.2343 38.272C64.2663 38.1227 64.4636 37.4613 64.8263 36.288L65.0343 35.632C65.109 35.3653 65.1836 35.12 65.2583 34.896C65.333 34.672 65.3863 34.4853 65.4183 34.336C64.9596 35.6693 64.4103 36.688 63.7703 37.392C63.3436 37.8827 62.9276 38.128 62.5223 38.128C62.117 38.128 61.7863 37.968 61.5303 37.648C61.285 37.3173 61.1623 36.8693 61.1623 36.304C61.1623 35.408 61.4183 33.9947 61.9303 32.064C62.1863 31.104 62.3143 30.5867 62.3143 30.512C62.3036 30.4693 62.2983 30.4213 62.2983 30.368C62.2983 30.2933 62.3143 30.2347 62.3463 30.192C62.4956 29.9893 62.6716 29.888 62.8743 29.888C63.077 29.888 63.1783 29.9947 63.1783 30.208C63.1783 30.4213 62.981 31.3173 62.5863 32.896C62.1916 34.4747 61.9943 35.5467 61.9943 36.112C61.9943 36.6667 62.0636 37.0133 62.2023 37.152C62.3303 37.2907 62.4903 37.36 62.6823 37.36C63.0876 37.36 63.5196 37.0187 63.9783 36.336C64.341 35.8027 64.661 35.088 64.9383 34.192C65.2263 33.2853 65.493 32.3307 65.7383 31.328L65.8183 31.008C65.9356 30.528 66.037 30.2293 66.1223 30.112C66.2076 29.984 66.3356 29.92 66.5063 29.92C66.677 29.92 66.7623 29.984 66.7623 30.112C66.7623 30.2613 66.533 31.3493 66.0743 33.376C65.6263 35.264 65.3063 36.672 65.1143 37.6C65.3276 37.4187 65.5143 37.248 65.6743 37.088C65.8876 36.8747 66.0423 36.7253 66.1383 36.64C66.245 36.5547 66.341 36.512 66.4263 36.512C66.629 36.512 66.7303 36.6027 66.7303 36.784C66.7303 36.88 66.6876 36.9867 66.6023 37.104C66.0263 37.616 65.4716 38.0747 64.9383 38.48C64.6823 39.888 64.4423 41.0027 64.2183 41.824C63.9943 42.656 63.685 43.3387 63.2903 43.872C62.9063 44.4053 62.405 44.672 61.7863 44.672ZM61.8023 43.904C62.453 43.904 63.0076 43.152 63.4663 41.648L63.8343 40.24L64.0423 39.2C63.6263 39.52 63.221 39.8133 62.8263 40.08C62.4316 40.3467 62.1063 40.5867 61.8503 40.8C61.605 41.0133 61.381 41.2853 61.1783 41.616C60.9863 41.9467 60.8903 42.3253 60.8903 42.752C60.8903 43.1893 61.0343 43.5253 61.3223 43.76C61.429 43.856 61.589 43.904 61.8023 43.904ZM68.9851 35.44C68.8251 35.44 68.7344 35.3333 68.7131 35.12C69.6944 30.8853 70.3717 27.1627 70.7451 23.952C70.8091 23.4507 70.8891 22.9227 70.9851 22.368C71.1024 21.8347 71.1664 21.3067 71.1771 20.784C71.2091 20.6773 71.2677 20.5867 71.3531 20.512C71.4491 20.4373 71.5451 20.4 71.6411 20.4C71.7691 20.4 71.8597 20.4907 71.9131 20.672C71.8917 21.1307 71.8224 21.696 71.7051 22.368C71.5664 23.232 71.4437 24.128 71.3371 25.056C71.2197 26.144 70.9797 27.632 70.6171 29.52C70.2651 31.3973 69.8704 33.264 69.4331 35.12C69.3157 35.3333 69.1664 35.44 68.9851 35.44ZM68.7291 38.784C68.6437 38.784 68.5744 38.7573 68.5211 38.704C68.4677 38.6507 68.4411 38.5867 68.4411 38.512C68.4411 38.4373 68.4464 38.3893 68.4571 38.368C68.2437 38.2827 68.1371 38.128 68.1371 37.904C68.1371 37.68 68.2277 37.488 68.4091 37.328C68.6011 37.168 68.7931 37.088 68.9851 37.088C69.1557 37.088 69.2891 37.1467 69.3851 37.264C69.4811 37.3707 69.5291 37.52 69.5291 37.712C69.5291 37.936 69.4491 38.1707 69.2891 38.416C69.1397 38.6613 68.9531 38.784 68.7291 38.784Z" fill="#29046F"/>
</svg>
