<svg width="362" height="179" viewBox="0 0 362 179" fill="none" xmlns="http://www.w3.org/2000/svg">
<g clip-path="url(#clip0_1048_4366)">
<path d="M46.5083 35.7797C46.5083 35.7797 43.8183 67.2497 45.7083 79.0997C46.0083 80.9597 47.4483 82.4097 49.2983 82.7497C50.8883 83.0397 52.4983 82.3897 53.4283 81.0697C56.4583 76.7797 65.7383 67.2997 90.6283 62.4697C91.8783 62.2297 92.7683 61.1197 92.7683 59.8497C92.7683 57.7597 91.9383 55.7397 90.4383 54.2797C84.6283 48.5897 68.3583 34.9697 46.5083 35.7797Z" stroke="white" stroke-width="40" stroke-miterlimit="10"/>
<path d="M90.7695 54.6299C105.93 55.6599 118.58 62.3999 128.78 70.7299" stroke="white" stroke-width="40" stroke-linecap="round" stroke-linejoin="round"/>
<path d="M25.6488 157.97C25.6488 157.97 4.14878 98.3097 45.0388 68.4497" stroke="white" stroke-width="40" stroke-linecap="round" stroke-linejoin="round"/>
<path d="M47.8502 101.68C47.8502 101.68 42.0302 122.46 59.9102 131.26C77.8002 140.07 92.1702 128.06 92.1702 128.06" stroke="white" stroke-width="40" stroke-linecap="round" stroke-linejoin="round"/>
<path d="M92.7695 141.8C92.7695 141.8 130.05 143.8 140.15 108.12C141.71 102.6 140.2 96.6597 136.19 92.5597L130.76 87.0197C128.13 84.3297 126.3 80.9597 125.49 77.2797C124.92 74.6797 126.18 72.0297 128.56 70.8397C131.23 69.5097 134.45 70.0097 136.58 72.1097L140.77 76.2297C142.35 77.7797 144.48 78.6197 146.69 78.5697C148.69 78.5197 150.56 77.5297 151.73 75.9097L158.66 66.3097C160.4 63.8997 163.74 63.3297 166.18 65.0097L168.34 66.4997C170.31 67.8597 171.17 70.3497 170.44 72.6297C170.27 73.1797 170.83 73.6697 171.35 73.4297L171.67 73.2797C173.48 72.4297 175.63 72.8697 176.96 74.3597L182.4 80.4497C183.75 81.9597 183.79 84.2397 182.49 85.7997C182.03 86.3397 182.28 87.1797 182.96 87.3797L183.93 87.6697C186.39 88.3997 188.18 90.5397 188.46 93.0897L189.09 98.7297C189.26 100.24 188.68 101.74 187.55 102.74C187.08 103.16 187.33 103.95 187.97 104C190.3 104.21 192.09 106.16 192.09 108.49V111.05C192.09 116.74 188.31 121.75 182.82 123.27C181.12 123.74 179.12 124.18 176.77 124.57C173.24 125.15 170.13 127.17 168.24 130.21C163.03 138.61 151.76 155.03 142.07 157.05" stroke="white" stroke-width="40" stroke-linecap="round" stroke-linejoin="round"/>
<path d="M234.258 59.0901V49.6101C234.258 46.0101 237.168 43.1001 240.768 43.1001C243.438 43.1001 245.958 44.3001 247.648 46.3601L250.448 49.7801C252.818 52.6601 257.358 52.1901 259.078 48.8801L259.908 47.2801C261.238 44.7101 263.898 43.1101 266.788 43.1101H269.528C272.888 43.1101 275.618 45.8301 275.618 49.2001C275.618 51.3101 277.738 52.7601 279.698 51.9901L279.858 51.9301C282.668 50.8401 285.858 52.0301 287.258 54.7101L288.738 57.5501C290.018 60.0101 289.428 63.0301 287.308 64.8201C286.278 65.6901 286.898 67.3701 288.248 67.3701H292.168C295.578 67.3701 298.338 70.1301 298.338 73.5401V75.1601C298.338 77.2401 297.078 79.1201 295.148 79.9101C294.418 80.2101 294.518 81.2801 295.288 81.4401L295.638 81.5101C298.248 82.0501 300.128 84.3501 300.128 87.0201C300.128 89.6301 298.698 92.0301 296.388 93.2401C291.208 95.9701 279.758 100.48 272.678 99.0601" stroke="white" stroke-width="40" stroke-linecap="round" stroke-linejoin="round"/>
<path d="M46.5083 35.7797C46.5083 35.7797 43.8183 67.2497 45.7083 79.0997C46.0083 80.9597 47.4483 82.4097 49.2983 82.7497C50.8883 83.0397 52.4983 82.3897 53.4283 81.0697C56.4583 76.7797 65.7383 67.2997 90.6283 62.4697C91.8783 62.2297 92.7683 61.1197 92.7683 59.8497C92.7683 57.7597 91.9383 55.7397 90.4383 54.2797C84.6283 48.5897 68.3583 34.9697 46.5083 35.7797Z" stroke="white" stroke-width="40" stroke-linecap="round" stroke-linejoin="round"/>
<path d="M43.5271 40.0401C43.5271 40.0401 23.3971 46.6301 23.2271 35.0601C23.0971 25.8701 46.0771 26.3801 43.5271 40.0401Z" stroke="white" stroke-width="40" stroke-linecap="round" stroke-linejoin="round"/>
<path d="M44.4272 43.7399C44.4272 43.7399 23.4672 43.5599 31.0272 55.7399C35.6272 63.1399 45.1572 50.2299 44.4272 43.7399Z" stroke="white" stroke-width="40" stroke-linecap="round" stroke-linejoin="round"/>
<path d="M45.9598 33.8899C45.9598 33.8899 60.7397 25.1399 50.6697 20.4299C44.5497 17.5599 42.9098 29.9899 45.9598 33.8899Z" stroke="white" stroke-width="40" stroke-linecap="round" stroke-linejoin="round"/>
<path d="M175.13 33.5498C172.96 35.2198 151.75 57.3898 151.75 57.3898" stroke="white" stroke-width="40" stroke-linecap="round" stroke-linejoin="round"/>
<path d="M157.148 32.25L169.408 59.28" stroke="white" stroke-width="40" stroke-linecap="round" stroke-linejoin="round"/>
<path d="M149.867 44.1196L177.257 47.3096" stroke="white" stroke-width="40" stroke-linecap="round" stroke-linejoin="round"/>
<path d="M320 39.46C320.73 42.1 333.39 70.05 333.39 70.05" stroke="white" stroke-width="40" stroke-linecap="round" stroke-linejoin="round"/>
<path d="M312.07 55.6499L341.73 54.3799" stroke="white" stroke-width="40" stroke-linecap="round" stroke-linejoin="round"/>
<path d="M320.367 66.8296L333.557 42.6196" stroke="white" stroke-width="40" stroke-linecap="round" stroke-linejoin="round"/>
<path d="M310.78 99.04C309.96 101.65 305.34 131.99 305.34 131.99" stroke="white" stroke-width="40" stroke-linecap="round" stroke-linejoin="round"/>
<path d="M295.309 108.3L320.879 123.39" stroke="white" stroke-width="40" stroke-linecap="round" stroke-linejoin="round"/>
<path d="M296.18 122.2L320.43 109.08" stroke="white" stroke-width="40" stroke-linecap="round" stroke-linejoin="round"/>
<path d="M171.488 69.3096C171.488 69.3096 209.958 45.7596 261.408 66.4896C268.298 69.2596 272.678 76.1196 272.678 83.5496V113.77C272.678 116.49 271.178 118.98 268.778 120.25C257.748 126.06 224.298 139.98 180.388 123.88" stroke="white" stroke-width="40" stroke-linecap="round" stroke-linejoin="round"/>
<path d="M220.34 74.0798V48.5498" stroke="white" stroke-width="40" stroke-linecap="round" stroke-linejoin="round"/>
<path d="M220.341 48.55C225.698 48.55 230.041 43.1013 230.041 36.38C230.041 29.6587 225.698 24.21 220.341 24.21C214.983 24.21 210.641 29.6587 210.641 36.38C210.641 43.1013 214.983 48.55 220.341 48.55Z" stroke="white" stroke-width="40" stroke-linecap="round" stroke-linejoin="round"/>
<path d="M170.679 73.3398L165.109 80.7198" stroke="white" stroke-width="40" stroke-linecap="round" stroke-linejoin="round"/>
<path d="M182.41 86.9399L176.09 93.9899" stroke="white" stroke-width="40" stroke-linecap="round" stroke-linejoin="round"/>
<path d="M187.337 103.47L181.617 108.8" stroke="white" stroke-width="40" stroke-linecap="round" stroke-linejoin="round"/>
<path d="M221.919 48.55C227.276 48.55 231.619 43.1013 231.619 36.38C231.619 29.6587 227.276 24.21 221.919 24.21C216.562 24.21 212.219 29.6587 212.219 36.38C212.219 43.1013 216.562 48.55 221.919 48.55Z" fill="#DC4F00"/>
<path d="M45.1091 40.0401C45.1091 40.0401 24.9791 46.6301 24.8091 35.0601C24.6791 25.8701 47.6591 26.3801 45.1091 40.0401Z" fill="#DC4F00"/>
<path d="M46.0014 43.7399C46.0014 43.7399 25.0414 43.5599 32.6014 55.7399C37.2014 63.1399 46.7314 50.2299 46.0014 43.7399Z" fill="#DC4F00"/>
<path d="M47.5379 33.8899C47.5379 33.8899 62.3179 25.1399 52.2479 20.4299C46.1279 17.5599 44.4879 29.9899 47.5379 33.8899Z" fill="#DC4F00"/>
<path d="M146.221 106.14C146.221 134.54 119.231 157.57 85.9306 157.57C52.6306 157.57 25.6406 134.54 25.6406 106.14C25.6406 77.74 54.6206 55.77 87.9206 55.77C121.221 55.77 146.231 77.74 146.231 106.14H146.221Z" fill="#FFD45A"/>
<path d="M48.0903 35.7797C48.0903 35.7797 45.4003 67.2497 47.2903 79.0997C47.5903 80.9597 49.0303 82.4097 50.8803 82.7497C52.4703 83.0397 54.0803 82.3897 55.0103 81.0697C58.0403 76.7797 67.3203 67.2997 92.2103 62.4697C93.4603 62.2297 94.3503 61.1197 94.3503 59.8497C94.3503 57.7597 93.5203 55.7397 92.0203 54.2797C86.2103 48.5897 69.9403 34.9697 48.0903 35.7797Z" fill="#DC4F00"/>
<path d="M235.831 59.0901L236.191 46.1701L239.931 43.7901L243.721 43.1001L250.601 48.0401L253.211 51.0601L258.761 51.8501L262.511 45.7701C262.511 45.7701 265.261 43.3701 265.551 43.2801C265.841 43.1901 272.661 43.3101 272.661 43.3101L275.761 44.9401C275.761 44.9401 276.941 47.7101 276.761 48.5601C276.581 49.4101 276.951 50.5401 277.231 50.6301C277.511 50.7201 280.591 52.1601 280.591 52.1601L284.771 51.3801L287.011 52.6101L290.491 56.9801L291.731 59.6701C291.731 59.6701 290.431 62.2701 290.431 62.7401C290.431 63.2101 288.521 67.0201 288.521 67.0201L290.801 67.1901C290.801 67.1901 294.081 68.0601 295.681 68.4301C297.281 68.8001 298.831 69.5801 298.831 70.0601C298.831 70.5401 299.501 72.7201 299.881 73.1901C300.261 73.6601 300.181 75.6001 299.801 76.0701C299.421 76.5401 301.701 76.5701 298.501 78.6501C295.301 80.7301 297.361 82.7201 297.191 82.2801C296.851 81.4101 299.111 82.5701 299.861 82.8601C300.611 83.1501 301.581 84.9201 301.931 85.3901C302.281 85.8601 301.831 87.1501 301.641 87.7201C301.451 88.2901 301.351 89.7701 300.501 90.9001C299.651 92.0301 299.411 93.1901 296.111 94.1301C292.811 95.0701 287.201 97.6501 286.071 98.0201C284.941 98.3901 274.231 99.0401 274.231 99.0401V96.8901L274.191 81.5301L272.891 75.1001L269.611 70.2501C269.611 70.2501 262.451 65.6601 262.161 65.5701C261.871 65.4801 245.181 60.6601 244.341 60.6601C243.501 60.6601 235.801 59.0901 235.801 59.0901H235.831Z" fill="#FFD45A"/>
<path d="M153.548 76.06C153.638 75.5 162.958 64.04 162.958 64.04L167.758 65L171.808 67.85L172.258 73.34L177.198 72.89L184.658 81.45V83.67L183.588 87.39L188.928 89.61L190.708 99.3L188.108 103.92L192.648 105.63L193.668 108.48L192.748 115.78L188.268 121.43L175.048 124.64L168.848 129.93L161.988 141.63L151.518 153.75L144.488 156.54L105.668 154.05L121.598 139.41C121.598 139.41 137.158 125.25 137.898 124.64C138.638 124.03 145.828 98.43 145.828 98.43L136.238 84.96L128.568 76.04V70.16L133.188 70.38L138.828 72.71L145.828 78.19L149.668 79.04L153.558 76.04L153.548 76.06Z" fill="#FFD45A"/>
<path d="M144 150.13H26.5195V157.56H144V150.13Z" fill="#FFD45A"/>
<path d="M49.7609 154.652C63.1006 153.522 72.5202 136.14 70.8003 115.828C69.0803 95.516 56.8721 79.9654 43.5325 81.0949C30.1928 82.2245 20.7732 99.6064 22.4931 119.919C24.2131 140.231 36.4213 155.781 49.7609 154.652Z" fill="#FFD45A"/>
<path d="M38.446 154.651C45.672 153.82 50.1703 141.324 48.4932 126.74C46.8161 112.156 39.5988 101.008 32.3728 101.839C25.1469 102.67 20.6486 115.166 22.3257 129.749C24.0027 144.333 31.2201 155.482 38.446 154.651Z" fill="#FFD45A"/>
<path d="M36.3387 138.17C37.1587 147.88 34.6587 156.02 30.7487 156.36C26.8387 156.7 23.6687 149.12 22.8487 139.41C22.0287 129.7 23.8587 121.52 27.7687 121.19C31.6787 120.86 35.5187 128.46 36.3387 138.18V138.17Z" fill="#FFD45A"/>
<path d="M92.3477 54.6299C107.508 55.6599 120.158 62.3999 130.358 70.7299" stroke="black" stroke-width="1.5" stroke-miterlimit="10"/>
<path d="M27.2191 157.97C27.2191 157.97 5.7191 98.3097 46.6091 68.4497" stroke="black" stroke-width="1.5" stroke-miterlimit="10"/>
<path d="M49.4205 101.68C49.4205 101.68 43.6005 122.46 61.4805 131.26C79.3705 140.07 93.7405 128.06 93.7405 128.06" stroke="black" stroke-width="1.5" stroke-miterlimit="10"/>
<path d="M94.3398 141.8C94.3398 141.8 131.62 143.8 141.72 108.12C143.28 102.6 141.77 96.6597 137.76 92.5597L132.33 87.0197C129.7 84.3297 127.87 80.9597 127.06 77.2797C126.49 74.6797 127.75 72.0297 130.13 70.8397C132.8 69.5097 136.02 70.0097 138.15 72.1097L142.34 76.2297C143.92 77.7797 146.05 78.6197 148.26 78.5697C150.26 78.5197 152.13 77.5297 153.3 75.9097L160.23 66.3097C161.97 63.8997 165.31 63.3297 167.75 65.0097L169.91 66.4997C171.88 67.8597 172.74 70.3497 172.01 72.6297C171.84 73.1797 172.4 73.6697 172.92 73.4297L173.24 73.2797C175.05 72.4297 177.2 72.8697 178.53 74.3597L183.97 80.4497C185.32 81.9597 185.36 84.2397 184.06 85.7997C183.6 86.3397 183.85 87.1797 184.53 87.3797L185.5 87.6697C187.96 88.3997 189.75 90.5397 190.03 93.0897L190.66 98.7297C190.83 100.24 190.25 101.74 189.12 102.74C188.65 103.16 188.9 103.95 189.54 104C191.87 104.21 193.66 106.16 193.66 108.49V111.05C193.66 116.74 189.88 121.75 184.39 123.27C182.69 123.74 180.69 124.18 178.34 124.57C174.81 125.15 171.7 127.17 169.81 130.21C164.6 138.61 153.33 155.03 143.64 157.05" stroke="black" stroke-width="1.5" stroke-miterlimit="10"/>
<path d="M235.828 59.0901V49.6101C235.828 46.0101 238.738 43.1001 242.338 43.1001C245.008 43.1001 247.528 44.3001 249.218 46.3601L252.018 49.7801C254.388 52.6601 258.928 52.1901 260.648 48.8801L261.478 47.2801C262.808 44.7101 265.468 43.1101 268.358 43.1101H271.098C274.458 43.1101 277.188 45.8301 277.188 49.2001C277.188 51.3101 279.308 52.7601 281.268 51.9901L281.428 51.9301C284.238 50.8401 287.428 52.0301 288.828 54.7101L290.308 57.5501C291.588 60.0101 290.998 63.0301 288.878 64.8201C287.848 65.6901 288.468 67.3701 289.818 67.3701H293.738C297.148 67.3701 299.908 70.1301 299.908 73.5401V75.1601C299.908 77.2401 298.648 79.1201 296.718 79.9101C295.988 80.2101 296.088 81.2801 296.858 81.4401L297.208 81.5101C299.818 82.0501 301.698 84.3501 301.698 87.0201C301.698 89.6301 300.268 92.0301 297.958 93.2401C292.778 95.9701 281.328 100.48 274.248 99.0601" stroke="black" stroke-width="1.5" stroke-miterlimit="10"/>
<path d="M48.0903 35.7797C48.0903 35.7797 45.4003 67.2497 47.2903 79.0997C47.5903 80.9597 49.0303 82.4097 50.8803 82.7497C52.4703 83.0397 54.0803 82.3897 55.0103 81.0697C58.0403 76.7797 67.3203 67.2997 92.2103 62.4697C93.4603 62.2297 94.3503 61.1197 94.3503 59.8497C94.3503 57.7597 93.5203 55.7397 92.0203 54.2797C86.2103 48.5897 69.9403 34.9697 48.0903 35.7797Z" stroke="black" stroke-width="1.5" stroke-miterlimit="10"/>
<path d="M45.1091 40.0401C45.1091 40.0401 24.9791 46.6301 24.8091 35.0601C24.6791 25.8701 47.6591 26.3801 45.1091 40.0401Z" stroke="black" stroke-width="1.5" stroke-miterlimit="10"/>
<path d="M46.0014 43.7399C46.0014 43.7399 25.0414 43.5599 32.6014 55.7399C37.2014 63.1399 46.7314 50.2299 46.0014 43.7399Z" stroke="black" stroke-width="1.5" stroke-miterlimit="10"/>
<path d="M47.5379 33.8899C47.5379 33.8899 62.3179 25.1399 52.2479 20.4299C46.1279 17.5599 44.4879 29.9899 47.5379 33.8899Z" stroke="black" stroke-width="1.5" stroke-miterlimit="10"/>
<path d="M176.7 33.5498C174.53 35.2198 153.32 57.3898 153.32 57.3898" stroke="black" stroke-width="1.5" stroke-miterlimit="10"/>
<path d="M158.719 32.25L170.979 59.28" stroke="black" stroke-width="1.5" stroke-miterlimit="10"/>
<path d="M151.449 44.1196L178.829 47.3096" stroke="black" stroke-width="1.5" stroke-miterlimit="10"/>
<path d="M321.57 39.46C322.3 42.1 334.96 70.05 334.96 70.05" stroke="black" stroke-width="1.5" stroke-miterlimit="10"/>
<path d="M313.648 55.6499L343.298 54.3799" stroke="black" stroke-width="1.5" stroke-miterlimit="10"/>
<path d="M321.941 66.8296L335.131 42.6196" stroke="black" stroke-width="1.5" stroke-miterlimit="10"/>
<path d="M312.35 99.04C311.53 101.65 306.91 131.99 306.91 131.99" stroke="black" stroke-width="1.5" stroke-miterlimit="10"/>
<path d="M296.891 108.3L322.451 123.39" stroke="black" stroke-width="1.5" stroke-miterlimit="10"/>
<path d="M297.75 122.2L322 109.08" stroke="black" stroke-width="1.5" stroke-miterlimit="10"/>
<path d="M173.059 69.3096C173.059 69.3096 211.529 45.7596 262.979 66.4896C269.869 69.2596 274.249 76.1196 274.249 83.5496V113.77C274.249 116.49 272.749 118.98 270.349 120.25C259.319 126.06 225.869 139.98 181.959 123.88" stroke="black" stroke-width="1.5" stroke-miterlimit="10"/>
<path d="M221.918 74.0798V48.5498" stroke="black" stroke-width="1.5" stroke-miterlimit="10"/>
<path d="M221.919 48.55C227.276 48.55 231.619 43.1013 231.619 36.38C231.619 29.6587 227.276 24.21 221.919 24.21C216.562 24.21 212.219 29.6587 212.219 36.38C212.219 43.1013 216.562 48.55 221.919 48.55Z" stroke="black" stroke-width="1.5" stroke-miterlimit="10"/>
<path d="M84.908 98.0401C86.007 98.0401 86.898 97.1491 86.898 96.0501C86.898 94.951 86.007 94.0601 84.908 94.0601C83.8089 94.0601 82.918 94.951 82.918 96.0501C82.918 97.1491 83.8089 98.0401 84.908 98.0401Z" fill="black"/>
<path d="M93.158 98.0401C94.257 98.0401 95.148 97.1491 95.148 96.0501C95.148 94.951 94.257 94.0601 93.158 94.0601C92.0589 94.0601 91.168 94.951 91.168 96.0501C91.168 97.1491 92.0589 98.0401 93.158 98.0401Z" fill="black"/>
<path d="M172.25 73.3398L166.68 80.7198" stroke="black" stroke-width="1.5" stroke-miterlimit="10" stroke-linecap="round"/>
<path d="M183.99 86.9399L177.66 93.9899" stroke="black" stroke-width="1.5" stroke-miterlimit="10" stroke-linecap="round"/>
<path d="M188.921 103.47L183.191 108.8" stroke="black" stroke-width="1.5" stroke-miterlimit="10" stroke-linecap="round"/>
<path d="M260.148 74.0801H196.488V121.35H260.148V74.0801Z" fill="white"/>
<path d="M140.11 157.52H25.48C20.9347 157.52 17.25 161.205 17.25 165.75V169.88C17.25 174.425 20.9347 178.11 25.48 178.11H140.11C144.655 178.11 148.34 174.425 148.34 169.88V165.75C148.34 161.205 144.655 157.52 140.11 157.52Z" fill="white"/>
<path d="M148.344 175.95C154.338 173.256 158.282 169.035 157.152 166.521C156.023 164.007 150.247 164.153 144.253 166.848C138.258 169.542 134.314 173.763 135.444 176.277C136.574 178.791 142.349 178.645 148.344 175.95Z" fill="white"/>
</g>
<defs>
<clipPath id="clip0_1048_4366">
<rect width="361.73" height="178.11" fill="white"/>
</clipPath>
</defs>
</svg>
