<svg width="29" height="31" viewBox="0 0 29 31" fill="none" xmlns="http://www.w3.org/2000/svg">
<path d="M1.5 6.52206L27.5 6.52206M21 29.375H8C6.20508 29.375 4.75 27.9133 4.75 26.1103V8.15441C4.75 7.25289 5.47754 6.52206 6.375 6.52206H22.625C23.5225 6.52206 24.25 7.25289 24.25 8.15441V26.1103C24.25 27.9133 22.7949 29.375 21 29.375ZM11.25 6.52206H17.75C18.6475 6.52206 19.375 5.79123 19.375 4.88971V3.25735C19.375 2.35583 18.6475 1.625 17.75 1.625H11.25C10.3525 1.625 9.625 2.35583 9.625 3.25735V4.88971C9.625 5.79123 10.3525 6.52206 11.25 6.52206Z" stroke="#212121" stroke-width="2" stroke-linecap="round"/>
</svg>

