<svg width="231" height="165" viewBox="0 0 231 165" fill="none" xmlns="http://www.w3.org/2000/svg">
<g clip-path="url(#clip0_1048_4461)">
<path d="M66.1212 88.7798C66.1212 88.7798 61.6912 103.62 77.5212 110.59C93.3412 117.55 105.471 109.34 105.471 109.34" stroke="white" stroke-width="40" stroke-miterlimit="10" stroke-linecap="round"/>
<path d="M203.5 73.8599C201.94 75.0599 186.73 90.9599 186.73 90.9599" stroke="white" stroke-width="40" stroke-miterlimit="10" stroke-linecap="round"/>
<path d="M190.609 72.9302L199.389 92.3102" stroke="white" stroke-width="40" stroke-miterlimit="10" stroke-linecap="round"/>
<path d="M185.391 81.4399L205.021 83.7299" stroke="white" stroke-width="40" stroke-miterlimit="10" stroke-linecap="round"/>
<path d="M203.79 25.7202C203.1 27.5602 198.66 49.1102 198.66 49.1102" stroke="white" stroke-width="40" stroke-miterlimit="10" stroke-linecap="round"/>
<path d="M192.359 31.77L210.099 43.53" stroke="white" stroke-width="40" stroke-miterlimit="10" stroke-linecap="round"/>
<path d="M192.461 41.75L210.321 33.27" stroke="white" stroke-width="40" stroke-miterlimit="10" stroke-linecap="round"/>
<path d="M175.54 108.78C175.85 109.87 175.81 109.71 176.07 110.7C178.26 119.07 178.4 128.22 176.14 136.56C175.32 139.58 174.19 142.51 172.66 144.74" stroke="white" stroke-width="40" stroke-miterlimit="10" stroke-linecap="round"/>
<path d="M167.162 89.2801C154.622 68.6401 131.172 46.2001 89.0619 49.4201C46.3419 52.6901 29.7619 78.1901 23.4419 99.8701C19.5819 113.09 19.0519 127.05 21.4519 140.61L22.1819 144.74" stroke="white" stroke-width="40" stroke-miterlimit="10" stroke-linecap="round"/>
<path d="M94.6602 132.85C94.6602 132.85 124.79 129.14 134.93 103.14C134.93 103.14 125.08 82.58 141.2 76.54C143.32 75.75 145.7 76.02 147.58 77.28L150.01 79.11C150.91 79.79 151.41 80.88 151.33 82.01C151.27 82.88 152.19 83.48 152.96 83.07C154.34 82.34 156.01 82.47 157.26 83.4L160.11 85.53C160.7 85.97 161.1 86.61 161.24 87.33C161.39 88.13 162.36 88.48 162.99 87.95C163.49 87.53 164.21 87.48 164.77 87.82L167.87 89.7C168.83 90.28 169.21 91.48 168.78 92.51C168.53 93.11 169.14 93.71 169.73 93.44C171.16 92.81 172.83 93.12 173.92 94.24L175.96 96.32C177.4 97.79 178.03 99.85 177.69 101.88C176.79 107.12 173.53 116.91 161.7 121.28C161.7 121.28 159.02 136.23 147.27 144.73" stroke="white" stroke-width="40" stroke-miterlimit="10" stroke-linecap="round"/>
<path d="M149.751 56.2002C149.751 56.2002 139.371 66.2002 140.541 76.8002" stroke="white" stroke-width="40" stroke-miterlimit="10" stroke-linecap="round"/>
<path d="M178.988 34.3499C179.478 32.5799 179.518 30.6499 179.008 28.6999C177.758 23.9099 173.298 20.4999 168.348 20.5499C166.008 20.5799 163.878 21.3099 162.138 22.5299C160.688 23.5399 158.748 23.4799 157.358 22.3799C154.828 20.3699 151.418 19.4799 147.938 20.3299C143.708 21.3599 140.458 24.9299 139.748 29.2199C139.568 30.3199 139.558 31.3799 139.688 32.3799C139.928 34.2099 139.288 36.0099 138.028 37.3599C135.578 39.9999 134.438 43.8199 135.488 47.6999C136.688 52.1699 140.738 55.4499 145.368 55.7299C146.328 55.7899 147.258 55.7299 148.138 55.5499C149.308 55.3199 150.318 56.4399 149.918 57.5599C149.258 59.4599 149.108 61.5699 149.618 63.7099C150.838 68.7899 155.648 72.3499 160.868 72.0499C165.008 71.8099 168.408 69.3599 170.088 65.9799C170.668 64.8199 171.888 64.1599 173.178 64.1499C174.368 64.1399 175.578 63.9699 176.798 63.6299C182.858 61.9099 187.038 56.0999 186.718 49.8199C186.488 45.2699 184.108 41.4399 180.658 39.1399C179.108 38.0999 178.478 36.1599 178.978 34.3599L178.988 34.3499Z" stroke="white" stroke-width="40" stroke-miterlimit="10" stroke-linecap="round"/>
<path d="M165.081 50.3144C165.982 47.6163 165.097 44.8907 163.107 44.2265C161.116 43.5623 158.772 45.2111 157.872 47.9091C156.972 50.6072 157.856 53.3329 159.847 53.997C161.838 54.6612 164.181 53.0124 165.081 50.3144Z" stroke="white" stroke-width="40" stroke-miterlimit="10" stroke-linecap="round"/>
<path d="M117.889 20L109.309 38.37" stroke="white" stroke-width="40" stroke-miterlimit="10" stroke-linecap="round"/>
<path d="M120.798 38.93L107.488 21.48" stroke="white" stroke-width="40" stroke-miterlimit="10" stroke-linecap="round"/>
<path d="M106.371 30.2098L122.811 27.2998" stroke="white" stroke-width="40" stroke-miterlimit="10" stroke-linecap="round"/>
<path d="M91.7191 82.21L81.2891 84.86" stroke="white" stroke-width="40" stroke-miterlimit="10" stroke-linecap="round"/>
<path d="M108.029 88.1899L98.7891 82.6899" stroke="white" stroke-width="40" stroke-miterlimit="10" stroke-linecap="round"/>
<path d="M151.931 83.0698C151.931 83.0698 148.491 87.4198 148.191 90.9598" stroke="white" stroke-width="40" stroke-miterlimit="10" stroke-linecap="round"/>
<path d="M162.158 88.1899C162.158 88.1899 159.298 91.8099 159.148 95.3899" stroke="white" stroke-width="40" stroke-miterlimit="10" stroke-linecap="round"/>
<path d="M169.161 93.46C169.161 93.46 166.841 98.08 167.361 99.72" stroke="white" stroke-width="40" stroke-miterlimit="10" stroke-linecap="round"/>
<path d="M56.9735 109.907C62.5677 90.8629 59.7486 73.264 50.6768 70.5992C41.6049 67.9344 29.7157 81.2127 24.1215 100.257C18.5272 119.302 21.3463 136.9 30.4182 139.565C39.49 142.23 51.3792 128.952 56.9735 109.907Z" fill="#FFD45A"/>
<path d="M179.41 34.3499C179.9 32.5799 179.94 30.6499 179.43 28.6999C178.18 23.9099 173.72 20.4999 168.77 20.5499C166.43 20.5799 164.3 21.3099 162.56 22.5299C161.11 23.5399 159.17 23.4799 157.78 22.3799C155.25 20.3699 151.84 19.4799 148.36 20.3299C144.13 21.3599 140.88 24.9299 140.17 29.2199C139.99 30.3199 139.98 31.3799 140.11 32.3799C140.35 34.2099 139.71 36.0099 138.45 37.3599C136 39.9999 134.86 43.8199 135.91 47.6999C137.11 52.1699 141.16 55.4499 145.79 55.7299C146.75 55.7899 147.68 55.7299 148.56 55.5499C149.73 55.3199 150.74 56.4399 150.34 57.5599C149.68 59.4599 149.53 61.5699 150.04 63.7099C151.26 68.7899 156.07 72.3499 161.29 72.0499C165.43 71.8099 168.83 69.3599 170.51 65.9799C171.09 64.8199 172.31 64.1599 173.6 64.1499C174.79 64.1399 176 63.9699 177.22 63.6299C183.28 61.9099 187.46 56.0999 187.14 49.8199C186.91 45.2699 184.53 41.4399 181.08 39.1399C179.53 38.0999 178.9 36.1599 179.4 34.3599L179.41 34.3499Z" fill="#DC4F00"/>
<path d="M154.689 72.9302L163.959 83.7302L168.939 91.8002L169.649 93.9602L172.569 93.4602L178.209 98.9802L176.679 107.11L159.579 124.26C159.579 124.26 148.219 120.43 148.219 120.09C148.219 119.75 148.609 88.7902 148.609 88.7902L154.679 72.9302H154.689Z" fill="#FFD45A"/>
<path d="M171.42 144.674C176.132 144.293 179.081 133.237 178.008 119.982C176.934 106.726 172.244 96.2897 167.532 96.6713C162.82 97.0529 159.87 108.108 160.944 121.364C162.017 134.619 166.707 145.056 171.42 144.674Z" fill="#FFD45A"/>
<path d="M27.8297 142.96C31.9166 142.96 35.2297 136.786 35.2297 129.17C35.2297 121.554 31.9166 115.38 27.8297 115.38C23.7428 115.38 20.4297 121.554 20.4297 129.17C20.4297 136.786 23.7428 142.96 27.8297 142.96Z" fill="#FFD45A"/>
<path d="M173.09 122.02H21.8398V144.74H173.09V122.02Z" fill="#FFD45A"/>
<path d="M96.2203 144.74C133.306 144.74 163.37 123.339 163.37 96.9401C163.37 70.5409 133.306 49.1401 96.2203 49.1401C59.1344 49.1401 29.0703 70.5409 29.0703 96.9401C29.0703 123.339 59.1344 144.74 96.2203 144.74Z" fill="#FFD45A"/>
<path d="M66.5392 88.7798C66.5392 88.7798 62.1092 103.62 77.9392 110.59C93.7592 117.55 105.889 109.34 105.889 109.34" stroke="black" stroke-width="1.5" stroke-miterlimit="10"/>
<path d="M203.918 73.8599C202.358 75.0599 187.148 90.9599 187.148 90.9599" stroke="black" stroke-width="1.5" stroke-miterlimit="10"/>
<path d="M191.031 72.9302L199.821 92.3102" stroke="black" stroke-width="1.5" stroke-miterlimit="10"/>
<path d="M185.809 81.4399L205.449 83.7299" stroke="black" stroke-width="1.5" stroke-miterlimit="10"/>
<path d="M204.208 25.7202C203.518 27.5602 199.078 49.1102 199.078 49.1102" stroke="black" stroke-width="1.5" stroke-miterlimit="10"/>
<path d="M192.789 31.77L210.529 43.53" stroke="black" stroke-width="1.5" stroke-miterlimit="10"/>
<path d="M192.879 41.75L210.739 33.27" stroke="black" stroke-width="1.5" stroke-miterlimit="10"/>
<path d="M175.958 108.78C176.268 109.87 176.228 109.71 176.488 110.7C178.678 119.07 178.818 128.22 176.558 136.56C175.738 139.58 174.608 142.51 173.078 144.74" stroke="black" stroke-width="1.5" stroke-miterlimit="10"/>
<path d="M167.58 89.2801C155.04 68.6401 131.59 46.2001 89.4799 49.4201C46.7599 52.6901 30.1799 78.1901 23.8599 99.8701C19.9999 113.09 19.4699 127.05 21.8699 140.61L22.5999 144.74" stroke="black" stroke-width="1.5" stroke-miterlimit="10"/>
<path d="M95.0781 132.85C95.0781 132.85 125.208 129.14 135.348 103.14C135.348 103.14 125.498 82.58 141.618 76.54C143.738 75.75 146.118 76.02 147.998 77.28L150.428 79.11C151.328 79.79 151.828 80.88 151.748 82.01C151.688 82.88 152.608 83.48 153.378 83.07C154.758 82.34 156.428 82.47 157.678 83.4L160.528 85.53C161.118 85.97 161.518 86.61 161.658 87.33C161.808 88.13 162.778 88.48 163.408 87.95C163.908 87.53 164.628 87.48 165.188 87.82L168.288 89.7C169.248 90.28 169.628 91.48 169.198 92.51C168.948 93.11 169.558 93.71 170.148 93.44C171.578 92.81 173.248 93.12 174.338 94.24L176.378 96.32C177.818 97.79 178.448 99.85 178.108 101.88C177.208 107.12 173.948 116.91 162.118 121.28C162.118 121.28 159.438 136.23 147.688 144.73" stroke="black" stroke-width="1.5" stroke-miterlimit="10"/>
<path d="M150.169 56.2002C150.169 56.2002 139.789 66.2002 140.959 76.8002" stroke="black" stroke-width="1.5" stroke-miterlimit="10"/>
<path d="M179.41 34.3499C179.9 32.5799 179.94 30.6499 179.43 28.6999C178.18 23.9099 173.72 20.4999 168.77 20.5499C166.43 20.5799 164.3 21.3099 162.56 22.5299C161.11 23.5399 159.17 23.4799 157.78 22.3799C155.25 20.3699 151.84 19.4799 148.36 20.3299C144.13 21.3599 140.88 24.9299 140.17 29.2199C139.99 30.3199 139.98 31.3799 140.11 32.3799C140.35 34.2099 139.71 36.0099 138.45 37.3599C136 39.9999 134.86 43.8199 135.91 47.6999C137.11 52.1699 141.16 55.4499 145.79 55.7299C146.75 55.7899 147.68 55.7299 148.56 55.5499C149.73 55.3199 150.74 56.4399 150.34 57.5599C149.68 59.4599 149.53 61.5699 150.04 63.7099C151.26 68.7899 156.07 72.3499 161.29 72.0499C165.43 71.8099 168.83 69.3599 170.51 65.9799C171.09 64.8199 172.31 64.1599 173.6 64.1499C174.79 64.1399 176 63.9699 177.22 63.6299C183.28 61.9099 187.46 56.0999 187.14 49.8199C186.91 45.2699 184.53 41.4399 181.08 39.1399C179.53 38.0999 178.9 36.1599 179.4 34.3599L179.41 34.3499Z" stroke="black" stroke-width="1.5" stroke-miterlimit="10"/>
<path d="M165.503 50.3158C166.403 47.6178 165.519 44.8921 163.528 44.2279C161.538 43.5638 159.194 45.2125 158.294 47.9106C157.394 50.6087 158.278 53.3343 160.269 53.9985C162.26 54.6627 164.603 53.0139 165.503 50.3158Z" fill="white"/>
<path d="M165.503 50.3158C166.403 47.6178 165.519 44.8921 163.528 44.2279C161.538 43.5638 159.194 45.2125 158.294 47.9106C157.394 50.6087 158.278 53.3343 160.269 53.9985C162.26 54.6627 164.603 53.0139 165.503 50.3158Z" fill="#FFD45A" stroke="black" stroke-width="1.5" stroke-miterlimit="10"/>
<path d="M118.31 20L109.73 38.37" stroke="black" stroke-width="1.5" stroke-miterlimit="10"/>
<path d="M121.22 38.93L107.91 21.48" stroke="black" stroke-width="1.5" stroke-miterlimit="10"/>
<path d="M106.789 30.2098L123.229 27.2998" stroke="black" stroke-width="1.5" stroke-miterlimit="10"/>
<path d="M92.1409 82.21L81.7109 84.86" stroke="black" stroke-width="1.5" stroke-miterlimit="10"/>
<path d="M108.451 88.1899L99.2109 82.6899" stroke="black" stroke-width="1.5" stroke-miterlimit="10"/>
<path d="M152.349 83.0698C152.349 83.0698 148.909 87.4198 148.609 90.9598" stroke="black" stroke-width="1.5" stroke-miterlimit="10" stroke-linecap="round"/>
<path d="M162.58 88.1899C162.58 88.1899 159.72 91.8099 159.57 95.3899" stroke="black" stroke-width="1.5" stroke-miterlimit="10" stroke-linecap="round"/>
<path d="M169.579 93.46C169.579 93.46 167.259 98.08 167.779 99.72" stroke="black" stroke-width="1.5" stroke-miterlimit="10" stroke-linecap="round"/>
<path d="M175.12 144.74H21.9898C16.6603 144.74 12.3398 149.061 12.3398 154.39V155.28C12.3398 160.61 16.6603 164.93 21.9898 164.93H175.12C180.449 164.93 184.77 160.61 184.77 155.28V154.39C184.77 149.061 180.449 144.74 175.12 144.74Z" fill="white"/>
</g>
<defs>
<clipPath id="clip0_1048_4461">
<rect width="230.32" height="164.93" fill="white"/>
</clipPath>
</defs>
</svg>