<svg width="230" height="149" viewBox="0 0 230 149" fill="none" xmlns="http://www.w3.org/2000/svg">
<g clip-path="url(#clip0_1048_4513)">
<path d="M192.738 97.5098C195.228 106.25 197.138 118.98 197.608 128.26" stroke="white" stroke-width="40" stroke-miterlimit="10" stroke-linecap="round"/>
<path d="M58.0586 52.9498C68.0786 45.9798 80.7186 41.0198 96.6686 39.7198C135.819 36.5298 161.189 47.8798 176.659 66.2598" stroke="white" stroke-width="40" stroke-miterlimit="10" stroke-linecap="round"/>
<path d="M20 128.25C20 128.25 20.91 108.03 30.67 86.8799" stroke="white" stroke-width="40" stroke-miterlimit="10" stroke-linecap="round"/>
<path d="M106.839 87.4C107.783 87.4 108.549 86.6344 108.549 85.69C108.549 84.7456 107.783 83.98 106.839 83.98C105.894 83.98 105.129 84.7456 105.129 85.69C105.129 86.6344 105.894 87.4 106.839 87.4Z" fill="black" stroke="white" stroke-width="40" stroke-miterlimit="10" stroke-linecap="round"/>
<path d="M113.94 87.4C114.885 87.4 115.65 86.6344 115.65 85.69C115.65 84.7456 114.885 83.98 113.94 83.98C112.996 83.98 112.23 84.7456 112.23 85.69C112.23 86.6344 112.996 87.4 113.94 87.4Z" fill="black" stroke="white" stroke-width="40" stroke-miterlimit="10" stroke-linecap="round"/>
<path d="M40.6588 120.79L38.7888 95.4499C38.4688 91.1399 35.2088 87.6299 30.9388 87.0099L27.7288 86.5399C25.2688 86.1799 23.5388 83.9299 23.8188 81.4599C24.0488 79.4899 25.4288 77.8399 27.3288 77.2799H27.3388C29.4788 76.6499 30.4088 74.1199 29.1788 72.2499L27.8188 70.1899C26.8488 68.7099 27.0188 66.7599 28.2388 65.4799L28.5788 65.1299C30.2488 63.3699 32.9188 63.0099 35.0088 64.2399L35.2788 64.3999C36.0188 64.8399 36.9088 64.1099 36.6188 63.2899C35.7188 60.8199 36.5288 58.0499 38.6188 56.4399L38.6988 56.3799C40.2788 55.1699 42.4488 55.1799 43.9988 56.3899C44.9988 57.1699 45.9088 57.8799 45.9088 57.8799C46.9888 59.2699 49.2188 58.4999 49.2188 56.7399C49.2188 54.4099 50.8588 52.3999 53.1488 51.9399L53.4888 51.8699C56.7688 51.2099 59.8988 53.5399 60.1988 56.8799L60.7688 63.2399C61.0388 66.2999 64.0788 68.3199 66.9988 67.3899L70.1488 66.3899C72.4788 65.6499 74.9988 66.7799 75.9888 69.0199C76.9288 71.1499 76.5288 73.6399 74.9688 75.3599L72.4388 78.1599C68.9588 82.0099 66.8788 86.9299 66.5488 92.1099L64.8088 119.24" stroke="white" stroke-width="40" stroke-miterlimit="10" stroke-linecap="round"/>
<path d="M179.98 124.72L189.8 101.28C191.47 97.3001 195.68 95.0101 199.93 95.7701L203.12 96.3401C205.57 96.7801 207.92 95.1901 208.44 92.7601C208.85 90.8201 208.06 88.8201 206.44 87.6901H206.43C204.6 86.4001 204.52 83.7201 206.28 82.3401L208.22 80.8101C209.61 79.7201 210.07 77.8101 209.31 76.2101L209.1 75.7701C208.07 73.5701 205.66 72.3801 203.29 72.8901L202.98 72.9601C202.13 73.1401 201.52 72.1601 202.06 71.4801C203.7 69.4201 203.81 66.5301 202.34 64.3501L202.29 64.2701C201.18 62.6201 199.11 61.9401 197.26 62.6001C196.06 63.0301 194.98 63.4101 194.98 63.4101C193.52 64.3901 191.65 62.9501 192.21 61.2801C192.95 59.0701 192.03 56.6401 190.01 55.4801L189.71 55.3101C186.81 53.6401 183.1 54.8601 181.76 57.9301L179.21 63.7801C177.98 66.5901 174.46 67.5501 171.98 65.7401L169.31 63.7901C167.33 62.3501 164.58 62.6201 162.93 64.4301C161.36 66.1501 160.95 68.6301 161.88 70.7701L163.39 74.2301C165.47 78.9901 165.88 84.3101 164.55 89.3301L157.59 115.61" stroke="white" stroke-width="40" stroke-miterlimit="10" stroke-linecap="round"/>
<path d="M59.9297 41.95C59.9297 41.95 66.1597 25.05 96.4497 30.53" stroke="white" stroke-width="40" stroke-miterlimit="10" stroke-linecap="round"/>
<path d="M69.2305 21.54C69.2305 21.54 73.1805 33.58 72.0805 37.77" stroke="white" stroke-width="40" stroke-miterlimit="10" stroke-linecap="round"/>
<path d="M82.3984 20V35.7" stroke="white" stroke-width="40" stroke-miterlimit="10" stroke-linecap="round"/>
<path d="M78.5615 91.6699C78.5615 91.6699 73.6015 107.75 92.8615 115.75C112.122 123.75 126.552 115.1 126.552 115.1" stroke="white" stroke-width="40" stroke-miterlimit="10" stroke-linecap="round"/>
<path d="M173.691 68.38L179.341 62.77L182.141 54.95L185.891 54.54L191.371 57.36L191.541 62.64L193.971 63.85L198.581 62.72L202.341 65.4L201.921 70.83C201.921 70.83 202.201 72.95 202.611 72.88C203.021 72.81 206.551 73.36 206.551 73.36C206.551 73.36 209.081 77.3 209.011 77.78C208.941 78.26 206.251 81.18 205.841 81.66C205.431 82.14 204.041 85.83 204.241 86.57C204.441 87.31 206.851 88.39 206.981 88.93C207.111 89.47 207.781 92.85 207.241 93.46C206.701 94.07 203.961 96.26 203.421 96.4C202.881 96.54 194.491 96.17 194.491 96.17L191.671 97.5L194.491 109.78L181.401 97.82L173.701 68.37L173.691 68.38Z" fill="#FFD45A"/>
<path d="M65.1194 68.8L59.3394 61.58L59.0394 53.28L55.5894 51.75L49.5194 52.78L47.7594 57.76L45.0794 58.18L41.0294 55.7L36.6394 57.12L35.3994 62.42C35.3994 62.42 35.8894 64.57 35.5194 64.38C35.1494 64.19 30.2194 63.43 30.2194 63.43C30.2194 63.43 26.6094 66.42 26.5294 66.9C26.4494 67.38 28.1294 70.98 28.3694 71.55C28.6094 72.12 28.8194 76.06 28.3994 76.72C27.9794 77.38 25.3594 77.66 25.0694 78.14C24.7794 78.62 23.1194 81.63 23.4494 82.38C23.7794 83.13 25.7194 86.04 26.1994 86.34C26.6794 86.64 34.7794 88.82 34.7794 88.82L37.0594 90.94L34.6094 95.43L46.7494 94.35L65.0994 68.78L65.1194 68.8Z" fill="#FFD45A"/>
<path d="M197.55 128.25C196.18 110.57 189.39 94.3398 181.18 80.8098C178.02 57.5398 148.13 39.2298 109.9 39.2298C109.46 39.2298 109.03 39.2498 108.59 39.2498C107.57 39.2098 106.55 39.1898 105.52 39.1898C104.14 39.1898 102.77 39.2298 101.4 39.2998C100.16 39.2298 98.9105 39.0698 97.6605 39.1898C81.0905 40.8098 65.4605 45.5598 52.7405 56.3998C49.3705 59.0398 46.4405 61.9098 44.0705 64.9698C30.0005 81.0298 20.8105 103.33 19.4805 128.25H197.54H197.55Z" fill="#FFD45A"/>
<path d="M192.039 97.5098C194.529 106.25 196.439 118.98 196.909 128.26" stroke="black" stroke-width="1.5" stroke-miterlimit="10"/>
<path d="M57.3594 52.9498C67.3794 45.9798 80.0194 41.0198 95.9694 39.7198C135.119 36.5298 160.489 47.8798 175.959 66.2598" stroke="black" stroke-width="1.5" stroke-miterlimit="10"/>
<path d="M19.3008 128.25C19.3008 128.25 20.2108 108.03 29.9708 86.8799" stroke="black" stroke-width="1.5" stroke-miterlimit="10"/>
<path d="M106.14 87.4C107.084 87.4 107.85 86.6344 107.85 85.69C107.85 84.7456 107.084 83.98 106.14 83.98C105.195 83.98 104.43 84.7456 104.43 85.69C104.43 86.6344 105.195 87.4 106.14 87.4Z" fill="black"/>
<path d="M113.23 87.4C114.174 87.4 114.94 86.6344 114.94 85.69C114.94 84.7456 114.174 83.98 113.23 83.98C112.285 83.98 111.52 84.7456 111.52 85.69C111.52 86.6344 112.285 87.4 113.23 87.4Z" fill="black"/>
<path d="M39.9517 120.79L38.0817 95.4499C37.7617 91.1399 34.5017 87.6299 30.2317 87.0099L27.0217 86.5399C24.5617 86.1799 22.8317 83.9299 23.1117 81.4599C23.3417 79.4899 24.7217 77.8399 26.6217 77.2799H26.6317C28.7717 76.6499 29.7017 74.1199 28.4717 72.2499L27.1117 70.1899C26.1417 68.7099 26.3117 66.7599 27.5317 65.4799L27.8717 65.1299C29.5417 63.3699 32.2117 63.0099 34.3017 64.2399L34.5717 64.3999C35.3117 64.8399 36.2017 64.1099 35.9117 63.2899C35.0117 60.8199 35.8217 58.0499 37.9117 56.4399L37.9917 56.3799C39.5717 55.1699 41.7417 55.1799 43.2917 56.3899C44.2917 57.1699 45.2017 57.8799 45.2017 57.8799C46.2817 59.2699 48.5117 58.4999 48.5117 56.7399C48.5117 54.4099 50.1517 52.3999 52.4417 51.9399L52.7817 51.8699C56.0617 51.2099 59.1917 53.5399 59.4917 56.8799L60.0617 63.2399C60.3317 66.2999 63.3717 68.3199 66.2917 67.3899L69.4417 66.3899C71.7717 65.6499 74.2917 66.7799 75.2817 69.0199C76.2217 71.1499 75.8217 73.6399 74.2617 75.3599L71.7317 78.1599C68.2517 82.0099 66.1717 86.9299 65.8417 92.1099L64.1017 119.24" stroke="black" stroke-width="1.5" stroke-miterlimit="10"/>
<path d="M179.281 124.72L189.101 101.28C190.771 97.3001 194.981 95.0101 199.231 95.7701L202.421 96.3401C204.871 96.7801 207.221 95.1901 207.741 92.7601C208.151 90.8201 207.361 88.8201 205.741 87.6901H205.731C203.901 86.4001 203.821 83.7201 205.581 82.3401L207.521 80.8101C208.911 79.7201 209.371 77.8101 208.611 76.2101L208.401 75.7701C207.371 73.5701 204.961 72.3801 202.591 72.8901L202.281 72.9601C201.431 73.1401 200.821 72.1601 201.361 71.4801C203.001 69.4201 203.111 66.5301 201.641 64.3501L201.591 64.2701C200.481 62.6201 198.411 61.9401 196.561 62.6001C195.361 63.0301 194.281 63.4101 194.281 63.4101C192.821 64.3901 190.951 62.9501 191.511 61.2801C192.251 59.0701 191.331 56.6401 189.311 55.4801L189.011 55.3101C186.111 53.6401 182.401 54.8601 181.061 57.9301L178.511 63.7801C177.281 66.5901 173.761 67.5501 171.281 65.7401L168.611 63.7901C166.631 62.3501 163.881 62.6201 162.231 64.4301C160.661 66.1501 160.251 68.6301 161.181 70.7701L162.691 74.2301C164.771 78.9901 165.181 84.3101 163.851 89.3301L156.891 115.61" stroke="black" stroke-width="1.5" stroke-miterlimit="10"/>
<path d="M59.2305 41.95C59.2305 41.95 65.4605 25.05 95.7505 30.53" stroke="black" stroke-width="1.5" stroke-miterlimit="10"/>
<path d="M68.5312 21.54C68.5312 21.54 72.4812 33.58 71.3812 37.77" stroke="black" stroke-width="1.5" stroke-miterlimit="10"/>
<path d="M81.6992 20V35.7" stroke="black" stroke-width="1.5" stroke-miterlimit="10"/>
<path d="M77.8584 91.6699C77.8584 91.6699 72.8984 107.75 92.1584 115.75C111.418 123.75 125.848 115.1 125.848 115.1" stroke="black" stroke-width="1.5" stroke-miterlimit="10"/>
<path d="M199.582 128.25H18.8517C13.2792 128.25 8.76172 132.767 8.76172 138.34V138.35C8.76172 143.923 13.2792 148.44 18.8517 148.44H199.582C205.154 148.44 209.672 143.923 209.672 138.35V138.34C209.672 132.767 205.154 128.25 199.582 128.25Z" fill="white"/>
</g>
<defs>
<clipPath id="clip0_1048_4513">
<rect width="229.67" height="148.44" fill="white"/>
</clipPath>
</defs>
</svg>
